<svg xmlns="http://www.w3.org/2000/svg" viewBox="0 0 320 180" width="320" height="180" role="img" aria-label="ai-search">
  <!-- Generado por scripts/gen_blocks.py. No editar a mano. -->
  <rect x="6" y="6" width="308" height="168" rx="10" fill="none" stroke="#0B3D66" stroke-width="3"/><rect x="20" y="22" width="280" height="30" rx="15" fill="none" stroke="#0B3D66" stroke-width="3"/><polygon points="40.0,29.0 42.1,34.1 47.6,34.5 43.4,38.1 44.7,43.5 40.0,40.6 35.3,43.5 36.6,38.1 32.4,34.5 37.9,34.1" fill="#FFCD33"/><rect x="58" y="34" width="148" height="6" rx="3" fill="#C3CEDA"/><rect x="246" y="26" width="44" height="22" rx="9" fill="#FFCD33"/><rect x="20" y="66" width="280" height="60" rx="8" fill="#E9EEF3"/><rect x="32" y="78" width="250" height="5" rx="3" fill="#C3CEDA"/><rect x="32" y="92" width="250" height="5" rx="3" fill="#C3CEDA"/><rect x="32" y="106" width="150" height="5" rx="3" fill="#C3CEDA"/><rect x="20" y="138" width="66" height="18" rx="9" fill="#E9EEF3"/><rect x="32" y="145" width="42" height="5" rx="3" fill="#0B3D66"/><rect x="96" y="138" width="66" height="18" rx="9" fill="#E9EEF3"/><rect x="108" y="145" width="42" height="5" rx="3" fill="#0B3D66"/><rect x="172" y="138" width="66" height="18" rx="9" fill="#E9EEF3"/><rect x="184" y="145" width="42" height="5" rx="3" fill="#0B3D66"/>
</svg>
