<svg xmlns="http://www.w3.org/2000/svg" viewBox="0 0 320 180" width="320" height="180" role="img" aria-label="article-body">
  <!-- Generado por scripts/gen_blocks.py. No editar a mano. -->
  <rect x="6" y="6" width="308" height="168" rx="10" fill="none" stroke="#0B3D66" stroke-width="3"/><rect x="20" y="26" width="150" height="11" rx="4" fill="#0B3D66"/><rect x="20" y="52" width="280" height="6" rx="3" fill="#C3CEDA"/><rect x="20" y="65" width="280" height="6" rx="3" fill="#C3CEDA"/><rect x="20" y="78" width="280" height="6" rx="3" fill="#C3CEDA"/><rect x="20" y="91" width="168" height="6" rx="3" fill="#C3CEDA"/><rect x="20" y="108" width="130" height="52" rx="6" fill="#E9EEF3" stroke="#0B3D66" stroke-width="3"/><path d="M20 108 L150 160 M150 108 L20 160" stroke="#0B3D66" stroke-width="2.5" opacity="0.55"/><rect x="166" y="110" width="130" height="6" rx="3" fill="#C3CEDA"/><rect x="166" y="123" width="130" height="6" rx="3" fill="#C3CEDA"/><rect x="166" y="136" width="78" height="6" rx="3" fill="#C3CEDA"/>
</svg>
