<svg xmlns="http://www.w3.org/2000/svg" viewBox="0 0 320 180" width="320" height="180" role="img" aria-label="audio-player">
  <!-- Generado por scripts/gen_blocks.py. No editar a mano. -->
  <rect x="6" y="6" width="308" height="168" rx="10" fill="none" stroke="#0B3D66" stroke-width="3"/><circle cx="46" cy="88" r="22" fill="#0B3D66"/><path d="M39.84 78.76 L55.9 88 L39.84 97.24 Z" fill="#FFFFFF"/><rect x="84" y="86.5" width="3.76068" height="3" rx="1.88034" fill="#0B3D66"/><rect x="90.7692" y="75.0362" width="3.76068" height="25.9276" rx="1.88034" fill="#0B3D66"/><rect x="97.5385" y="67.5982" width="3.76068" height="40.8036" rx="1.88034" fill="#0B3D66"/><rect x="104.308" y="68.643" width="3.76068" height="38.714" rx="1.88034" fill="#0B3D66"/><rect x="111.077" y="77.1966" width="3.76068" height="21.6068" rx="1.88034" fill="#0B3D66"/><rect x="117.846" y="76.2093" width="3.76068" height="23.5814" rx="1.88034" fill="#0B3D66"/><rect x="124.615" y="66.4205" width="3.76068" height="43.159" rx="1.88034" fill="#0B3D66"/><rect x="131.385" y="64.3205" width="3.76068" height="47.3591" rx="1.88034" fill="#0B3D66"/><rect x="138.154" y="70.8533" width="3.76068" height="34.2934" rx="1.88034" fill="#0B3D66"/><rect x="144.923" y="82.4296" width="3.76068" height="11.1409" rx="1.88034" fill="#0B3D66"/><rect x="151.692" y="71.7" width="3.76068" height="32.6" rx="1.88034" fill="#0B3D66"/><rect x="158.462" y="66.7679" width="3.76068" height="42.4641" rx="1.88034" fill="#0B3D66"/><rect x="165.231" y="70.3828" width="3.76068" height="35.2343" rx="1.88034" fill="#C3CEDA"/><rect x="172" y="81.3502" width="3.76068" height="13.2997" rx="1.88034" fill="#C3CEDA"/><rect x="178.769" y="80.9334" width="3.76068" height="14.1332" rx="1.88034" fill="#C3CEDA"/><rect x="185.538" y="70.3442" width="3.76068" height="35.3115" rx="1.88034" fill="#C3CEDA"/><rect x="192.308" y="67.2982" width="3.76068" height="41.4036" rx="1.88034" fill="#C3CEDA"/><rect x="199.077" y="72.7036" width="3.76068" height="30.5928" rx="1.88034" fill="#C3CEDA"/><rect x="205.846" y="82.3511" width="3.76068" height="11.2977" rx="1.88034" fill="#C3CEDA"/><rect x="212.615" y="70.296" width="3.76068" height="35.408" rx="1.88034" fill="#C3CEDA"/><rect x="219.385" y="64.2069" width="3.76068" height="47.5862" rx="1.88034" fill="#C3CEDA"/><rect x="226.154" y="66.818" width="3.76068" height="42.364" rx="1.88034" fill="#C3CEDA"/><rect x="232.923" y="76.9027" width="3.76068" height="22.1945" rx="1.88034" fill="#C3CEDA"/><rect x="239.692" y="76.0961" width="3.76068" height="23.8078" rx="1.88034" fill="#C3CEDA"/><rect x="246.462" y="67.8764" width="3.76068" height="40.2471" rx="1.88034" fill="#C3CEDA"/><rect x="253.231" y="67.3891" width="3.76068" height="41.2219" rx="1.88034" fill="#C3CEDA"/><rect x="272" y="82" width="28" height="6" rx="3" fill="#C3CEDA"/><rect x="20" y="146" width="280" height="6" rx="3" fill="#E9EEF3"/><rect x="20" y="146" width="120" height="6" rx="3" fill="#FFCD33"/><circle cx="140" cy="149" r="7" fill="#0B3D66"/>
</svg>
