<svg xmlns="http://www.w3.org/2000/svg" viewBox="0 0 320 180" width="320" height="180" role="img" aria-label="bento-grid">
  <!-- Generado por scripts/gen_blocks.py. No editar a mano. -->
  <rect x="6" y="6" width="308" height="168" rx="10" fill="none" stroke="#0B3D66" stroke-width="3"/><rect x="20" y="26" width="148" height="82" rx="6" fill="#E9EEF3" stroke="#0B3D66" stroke-width="3"/><path d="M20 26 L168 108 M168 26 L20 108" stroke="#0B3D66" stroke-width="2.5" opacity="0.55"/><rect x="176" y="26" width="60" height="82" rx="6" fill="none" stroke="#0B3D66" stroke-width="2.5"/><rect x="244" y="26" width="56" height="40" rx="6" fill="#E9EEF3" stroke="#0B3D66" stroke-width="3"/><path d="M244 26 L300 66 M300 26 L244 66" stroke="#0B3D66" stroke-width="2.5" opacity="0.55"/><rect x="244" y="74" width="56" height="34" rx="6" fill="none" stroke="#0B3D66" stroke-width="2.5"/><rect x="20" y="116" width="88" height="38" rx="6" fill="none" stroke="#0B3D66" stroke-width="2.5"/><rect x="116" y="116" width="184" height="38" rx="6" fill="#E9EEF3" stroke="#0B3D66" stroke-width="3"/><path d="M116 116 L300 154 M300 116 L116 154" stroke="#0B3D66" stroke-width="2.5" opacity="0.55"/>
</svg>
