<svg xmlns="http://www.w3.org/2000/svg" viewBox="0 0 320 180" width="320" height="180" role="img" aria-label="booking-calendar">
  <!-- Generado por scripts/gen_blocks.py. No editar a mano. -->
  <rect x="6" y="6" width="308" height="168" rx="10" fill="none" stroke="#0B3D66" stroke-width="3"/><rect x="20" y="20" width="64" height="8" rx="4" fill="#0B3D66"/><path d="M278 20 L274 24 L278 28" stroke="#0B3D66" stroke-width="2.5" fill="none" stroke-linecap="round" stroke-linejoin="round"/><path d="M296 20 L300 24 L296 28" stroke="#0B3D66" stroke-width="2.5" fill="none" stroke-linecap="round" stroke-linejoin="round"/><rect x="31" y="38" width="14" height="4" rx="3" fill="#C3CEDA"/><rect x="71.7" y="38" width="14" height="4" rx="3" fill="#C3CEDA"/><rect x="112.4" y="38" width="14" height="4" rx="3" fill="#C3CEDA"/><rect x="153.1" y="38" width="14" height="4" rx="3" fill="#C3CEDA"/><rect x="193.8" y="38" width="14" height="4" rx="3" fill="#C3CEDA"/><rect x="234.5" y="38" width="14" height="4" rx="3" fill="#C3CEDA"/><rect x="275.2" y="38" width="14" height="4" rx="3" fill="#C3CEDA"/><rect x="20" y="50" width="35.7143" height="16.8" rx="3" fill="#E9EEF3"/><rect x="60.7143" y="50" width="35.7143" height="16.8" rx="3" fill="#E9EEF3"/><rect x="101.429" y="50" width="35.7143" height="16.8" rx="3" fill="#E9EEF3"/><rect x="142.143" y="50" width="35.7143" height="16.8" rx="3" fill="#E9EEF3"/><rect x="182.857" y="50" width="35.7143" height="16.8" rx="3" fill="#E9EEF3"/><rect x="223.571" y="50" width="35.7143" height="16.8" rx="3" fill="#E9EEF3"/><rect x="264.286" y="50" width="35.7143" height="16.8" rx="3" fill="#E9EEF3"/><rect x="20" y="71.8" width="35.7143" height="16.8" rx="3" fill="#E9EEF3"/><rect x="60.7143" y="71.8" width="35.7143" height="16.8" rx="3" fill="#E9EEF3"/><rect x="101.429" y="71.8" width="35.7143" height="16.8" rx="3" fill="#E9EEF3"/><rect x="142.143" y="71.8" width="35.7143" height="16.8" rx="3" fill="#E9EEF3"/><rect x="182.857" y="71.8" width="35.7143" height="16.8" rx="3" fill="#E9EEF3"/><rect x="223.571" y="71.8" width="35.7143" height="16.8" rx="3" fill="#E9EEF3"/><rect x="264.286" y="71.8" width="35.7143" height="16.8" rx="3" fill="#E9EEF3"/><rect x="20" y="93.6" width="35.7143" height="16.8" rx="3" fill="#E9EEF3"/><rect x="60.7143" y="93.6" width="35.7143" height="16.8" rx="3" fill="#E9EEF3"/><rect x="101.429" y="93.6" width="35.7143" height="16.8" rx="3" fill="#E9EEF3"/><rect x="142.143" y="93.6" width="35.7143" height="16.8" rx="3" fill="#FFCD33"/><rect x="182.857" y="93.6" width="35.7143" height="16.8" rx="3" fill="#E9EEF3"/><rect x="223.571" y="93.6" width="35.7143" height="16.8" rx="3" fill="#E9EEF3"/><rect x="264.286" y="93.6" width="35.7143" height="16.8" rx="3" fill="#E9EEF3"/><rect x="20" y="115.4" width="35.7143" height="16.8" rx="3" fill="#E9EEF3"/><rect x="60.7143" y="115.4" width="35.7143" height="16.8" rx="3" fill="#E9EEF3"/><rect x="101.429" y="115.4" width="35.7143" height="16.8" rx="3" fill="#E9EEF3"/><rect x="142.143" y="115.4" width="35.7143" height="16.8" rx="3" fill="#E9EEF3"/><rect x="182.857" y="115.4" width="35.7143" height="16.8" rx="3" fill="#E9EEF3"/><rect x="223.571" y="115.4" width="35.7143" height="16.8" rx="3" fill="#E9EEF3"/><rect x="264.286" y="115.4" width="35.7143" height="16.8" rx="3" fill="#E9EEF3"/><rect x="20" y="137.2" width="35.7143" height="16.8" rx="3" fill="#E9EEF3"/><rect x="60.7143" y="137.2" width="35.7143" height="16.8" rx="3" fill="#E9EEF3"/><rect x="101.429" y="137.2" width="35.7143" height="16.8" rx="3" fill="#E9EEF3"/><rect x="142.143" y="137.2" width="35.7143" height="16.8" rx="3" fill="#E9EEF3"/><rect x="182.857" y="137.2" width="35.7143" height="16.8" rx="3" fill="#E9EEF3"/><rect x="223.571" y="137.2" width="35.7143" height="16.8" rx="3" fill="#E9EEF3"/><rect x="264.286" y="137.2" width="35.7143" height="16.8" rx="3" fill="#E9EEF3"/>
</svg>
