<svg xmlns="http://www.w3.org/2000/svg" viewBox="0 0 320 180" width="320" height="180" role="img" aria-label="cart">
  <!-- Generado por scripts/gen_blocks.py. No editar a mano. -->
  <rect x="6" y="6" width="308" height="168" rx="10" fill="none" stroke="#0B3D66" stroke-width="3"/><rect x="20" y="30" width="40" height="28" rx="6" fill="#E9EEF3" stroke="#0B3D66" stroke-width="3"/><path d="M20 30 L60 58 M60 30 L20 58" stroke="#0B3D66" stroke-width="2.5" opacity="0.55"/><rect x="70" y="34" width="100" height="6" rx="3" fill="#C3CEDA"/><rect x="70" y="46" width="60" height="5" rx="3" fill="#C3CEDA"/><rect x="190" y="40" width="30" height="6" rx="3" fill="#0B3D66"/><rect x="20" y="64" width="40" height="28" rx="6" fill="#E9EEF3" stroke="#0B3D66" stroke-width="3"/><path d="M20 64 L60 92 M60 64 L20 92" stroke="#0B3D66" stroke-width="2.5" opacity="0.55"/><rect x="70" y="68" width="100" height="6" rx="3" fill="#C3CEDA"/><rect x="70" y="80" width="60" height="5" rx="3" fill="#C3CEDA"/><rect x="190" y="74" width="30" height="6" rx="3" fill="#0B3D66"/><rect x="20" y="98" width="40" height="28" rx="6" fill="#E9EEF3" stroke="#0B3D66" stroke-width="3"/><path d="M20 98 L60 126 M60 98 L20 126" stroke="#0B3D66" stroke-width="2.5" opacity="0.55"/><rect x="70" y="102" width="100" height="6" rx="3" fill="#C3CEDA"/><rect x="70" y="114" width="60" height="5" rx="3" fill="#C3CEDA"/><rect x="190" y="108" width="30" height="6" rx="3" fill="#0B3D66"/><rect x="238" y="30" width="62" height="96" rx="8" fill="#E9EEF3" stroke="#0B3D66" stroke-width="2.5"/><rect x="248" y="44" width="42" height="6" rx="3" fill="#C3CEDA"/><rect x="248" y="96" width="42" height="18" rx="9" fill="#FFCD33"/>
</svg>
