<svg xmlns="http://www.w3.org/2000/svg" viewBox="0 0 320 180" width="320" height="180" role="img" aria-label="case-studies">
  <!-- Generado por scripts/gen_blocks.py. No editar a mano. -->
  <rect x="6" y="6" width="308" height="168" rx="10" fill="none" stroke="#0B3D66" stroke-width="3"/><rect x="26" y="28" width="128" height="68" rx="6" fill="#E9EEF3" stroke="#0B3D66" stroke-width="3"/><path d="M26 28 L154 96 M154 28 L26 96" stroke="#0B3D66" stroke-width="2.5" opacity="0.55"/><rect x="26" y="106" width="100" height="7" rx="3" fill="#0B3D66"/><rect x="26" y="122" width="128" height="5" rx="3" fill="#C3CEDA"/><rect x="26" y="133" width="76.8" height="5" rx="3" fill="#C3CEDA"/><rect x="166" y="28" width="128" height="68" rx="6" fill="#E9EEF3" stroke="#0B3D66" stroke-width="3"/><path d="M166 28 L294 96 M294 28 L166 96" stroke="#0B3D66" stroke-width="2.5" opacity="0.55"/><rect x="166" y="106" width="100" height="7" rx="3" fill="#0B3D66"/><rect x="166" y="122" width="128" height="5" rx="3" fill="#C3CEDA"/><rect x="166" y="133" width="76.8" height="5" rx="3" fill="#C3CEDA"/>
</svg>
