<svg xmlns="http://www.w3.org/2000/svg" viewBox="0 0 320 180" width="320" height="180" role="img" aria-label="category-grid">
  <!-- Generado por scripts/gen_blocks.py. No editar a mano. -->
  <rect x="6" y="6" width="308" height="168" rx="10" fill="none" stroke="#0B3D66" stroke-width="3"/><rect x="24" y="26" width="128" height="52" rx="6" fill="#E9EEF3" stroke="#0B3D66" stroke-width="3"/><path d="M24 26 L152 78 M152 26 L24 78" stroke="#0B3D66" stroke-width="2.5" opacity="0.55"/><rect x="24" y="82" width="70" height="6" rx="3" fill="#C3CEDA"/><rect x="168" y="26" width="128" height="52" rx="6" fill="#E9EEF3" stroke="#0B3D66" stroke-width="3"/><path d="M168 26 L296 78 M296 26 L168 78" stroke="#0B3D66" stroke-width="2.5" opacity="0.55"/><rect x="168" y="82" width="70" height="6" rx="3" fill="#C3CEDA"/><rect x="24" y="92" width="128" height="52" rx="6" fill="#E9EEF3" stroke="#0B3D66" stroke-width="3"/><path d="M24 92 L152 144 M152 92 L24 144" stroke="#0B3D66" stroke-width="2.5" opacity="0.55"/><rect x="24" y="148" width="70" height="6" rx="3" fill="#C3CEDA"/><rect x="168" y="92" width="128" height="52" rx="6" fill="#E9EEF3" stroke="#0B3D66" stroke-width="3"/><path d="M168 92 L296 144 M296 92 L168 144" stroke="#0B3D66" stroke-width="2.5" opacity="0.55"/><rect x="168" y="148" width="70" height="6" rx="3" fill="#C3CEDA"/>
</svg>
