<svg xmlns="http://www.w3.org/2000/svg" viewBox="0 0 320 180" width="320" height="180" role="img" aria-label="chat-panel">
  <!-- Generado por scripts/gen_blocks.py. No editar a mano. -->
  <rect x="6" y="6" width="308" height="168" rx="10" fill="none" stroke="#0B3D66" stroke-width="3"/><circle cx="30" cy="32" r="9" fill="#0B3D66"/><rect x="48" y="24" width="78" height="7" rx="3" fill="#0B3D66"/><rect x="48" y="38" width="48" height="5" rx="3" fill="#C3CEDA"/><rect x="6" y="54" width="308" height="1.5" rx="0" fill="#C3CEDA"/><rect x="20" y="66" width="142" height="28" rx="12" fill="#E9EEF3"/><rect x="34" y="76" width="92" height="6" rx="3" fill="#C3CEDA"/><rect x="158" y="102" width="142" height="28" rx="12" fill="#FFCD33"/><rect x="172" y="112" width="92" height="6" rx="3" fill="#0B3D66"/><rect x="20" y="140" width="240" height="26" rx="13" fill="none" stroke="#0B3D66" stroke-width="2.5"/><rect x="38" y="150" width="88" height="5" rx="3" fill="#C3CEDA"/><circle cx="286" cy="153" r="14" fill="#FFCD33"/><path d="M283.5 148 L288.5 153 L283.5 158" stroke="#0B3D66" stroke-width="2.5" fill="none" stroke-linecap="round" stroke-linejoin="round"/>
</svg>
