<svg xmlns="http://www.w3.org/2000/svg" viewBox="0 0 320 180" width="320" height="180" role="img" aria-label="comments-thread">
  <!-- Generado por scripts/gen_blocks.py. No editar a mano. -->
  <rect x="6" y="6" width="308" height="168" rx="10" fill="none" stroke="#0B3D66" stroke-width="3"/><circle cx="31" cy="36" r="9" fill="#0B3D66"/><rect x="48" y="24" width="252" height="40" rx="8" fill="none" stroke="#0B3D66" stroke-width="2.5"/><rect x="60" y="33" width="58" height="6" rx="3" fill="#0B3D66"/><rect x="60" y="47" width="192" height="5" rx="3" fill="#C3CEDA"/><circle cx="69" cy="84" r="9" fill="#0B3D66"/><rect x="86" y="72" width="224" height="38" rx="8" fill="none" stroke="#0B3D66" stroke-width="2.5"/><rect x="98" y="81" width="58" height="6" rx="3" fill="#0B3D66"/><rect x="98" y="95" width="164" height="5" rx="3" fill="#C3CEDA"/><circle cx="31" cy="130" r="9" fill="#0B3D66"/><rect x="48" y="118" width="252" height="32" rx="8" fill="none" stroke="#0B3D66" stroke-width="2.5"/><rect x="60" y="127" width="58" height="6" rx="3" fill="#0B3D66"/><rect x="60" y="141" width="192" height="5" rx="3" fill="#C3CEDA"/>
</svg>
