<svg xmlns="http://www.w3.org/2000/svg" viewBox="0 0 320 180" width="320" height="180" role="img" aria-label="comparison-table">
  <!-- Generado por scripts/gen_blocks.py. No editar a mano. -->
  <rect x="6" y="6" width="308" height="168" rx="10" fill="none" stroke="#0B3D66" stroke-width="3"/><rect x="181" y="20" width="62" height="138" rx="8" fill="#E9EEF3"/><rect x="130" y="28" width="40" height="7" rx="3" fill="#0B3D66"/><rect x="192" y="28" width="40" height="7" rx="3" fill="#0B3D66"/><rect x="254" y="28" width="40" height="7" rx="3" fill="#0B3D66"/><rect x="20" y="57" width="96" height="6" rx="3" fill="#C3CEDA"/><path d="M144 60 L149.1 64.8 L156 54.6" stroke="#0B3D66" stroke-width="2.5" fill="none" stroke-linecap="round" stroke-linejoin="round"/><path d="M206 60 L211.1 64.8 L218 54.6" stroke="#FFCD33" stroke-width="2.5" fill="none" stroke-linecap="round" stroke-linejoin="round"/><path d="M268 60 L273.1 64.8 L280 54.6" stroke="#0B3D66" stroke-width="2.5" fill="none" stroke-linecap="round" stroke-linejoin="round"/><rect x="20" y="81" width="96" height="6" rx="3" fill="#C3CEDA"/><path d="M144 84 L149.1 88.8 L156 78.6" stroke="#0B3D66" stroke-width="2.5" fill="none" stroke-linecap="round" stroke-linejoin="round"/><path d="M206 84 L211.1 88.8 L218 78.6" stroke="#FFCD33" stroke-width="2.5" fill="none" stroke-linecap="round" stroke-linejoin="round"/><path d="M268 84 L273.1 88.8 L280 78.6" stroke="#0B3D66" stroke-width="2.5" fill="none" stroke-linecap="round" stroke-linejoin="round"/><rect x="20" y="105" width="96" height="6" rx="3" fill="#C3CEDA"/><circle cx="150" cy="108" r="5" fill="#C3CEDA"/><path d="M206 108 L211.1 112.8 L218 102.6" stroke="#FFCD33" stroke-width="2.5" fill="none" stroke-linecap="round" stroke-linejoin="round"/><path d="M268 108 L273.1 112.8 L280 102.6" stroke="#0B3D66" stroke-width="2.5" fill="none" stroke-linecap="round" stroke-linejoin="round"/><rect x="20" y="129" width="96" height="6" rx="3" fill="#C3CEDA"/><circle cx="150" cy="132" r="5" fill="#C3CEDA"/><path d="M206 132 L211.1 136.8 L218 126.6" stroke="#FFCD33" stroke-width="2.5" fill="none" stroke-linecap="round" stroke-linejoin="round"/><path d="M268 132 L273.1 136.8 L280 126.6" stroke="#0B3D66" stroke-width="2.5" fill="none" stroke-linecap="round" stroke-linejoin="round"/>
</svg>
