<svg xmlns="http://www.w3.org/2000/svg" viewBox="0 0 320 180" width="320" height="180" role="img" aria-label="cookie-consent">
  <!-- Generado por scripts/gen_blocks.py. No editar a mano. -->
  <rect x="6" y="6" width="308" height="168" rx="10" fill="none" stroke="#0B3D66" stroke-width="3"/><rect x="20" y="22" width="110" height="74" rx="6" fill="#E9EEF3" stroke="#0B3D66" stroke-width="3"/><path d="M20 22 L130 96 M130 22 L20 96" stroke="#0B3D66" stroke-width="2.5" opacity="0.55"/><rect x="146" y="30" width="154" height="5" rx="3" fill="#C3CEDA"/><rect x="146" y="44" width="154" height="5" rx="3" fill="#C3CEDA"/><rect x="146" y="58" width="154" height="5" rx="3" fill="#C3CEDA"/><rect x="146" y="72" width="92.4" height="5" rx="3" fill="#C3CEDA"/><rect x="16" y="110" width="288" height="52" rx="8" fill="#FFFFFF" stroke="#0B3D66" stroke-width="2.5"/><rect x="30" y="122" width="92" height="6" rx="3" fill="#0B3D66"/><rect x="30" y="138" width="132" height="5" rx="3" fill="#C3CEDA"/><rect x="186" y="124" width="54" height="24" rx="6" fill="none" stroke="#0B3D66" stroke-width="2.5"/><rect x="250" y="124" width="52" height="24" rx="9" fill="#FFCD33"/>
</svg>
