<svg xmlns="http://www.w3.org/2000/svg" viewBox="0 0 320 180" width="320" height="180" role="img" aria-label="cpt-showcase">
  <!-- Generado por scripts/gen_blocks.py. No editar a mano. -->
  <rect x="6" y="6" width="308" height="168" rx="10" fill="none" stroke="#0B3D66" stroke-width="3"/><rect x="26" y="30" width="80" height="62" rx="6" fill="#E9EEF3" stroke="#0B3D66" stroke-width="3"/><path d="M26 30 L106 92 M106 30 L26 92" stroke="#0B3D66" stroke-width="2.5" opacity="0.55"/><rect x="26" y="102" width="60" height="7" rx="3" fill="#0B3D66"/><rect x="26" y="116" width="80" height="5" rx="3" fill="#C3CEDA"/><rect x="118" y="30" width="80" height="62" rx="6" fill="#E9EEF3" stroke="#0B3D66" stroke-width="3"/><path d="M118 30 L198 92 M198 30 L118 92" stroke="#0B3D66" stroke-width="2.5" opacity="0.55"/><rect x="118" y="102" width="60" height="7" rx="3" fill="#0B3D66"/><rect x="118" y="116" width="80" height="5" rx="3" fill="#C3CEDA"/><rect x="210" y="30" width="80" height="62" rx="6" fill="#E9EEF3" stroke="#0B3D66" stroke-width="3"/><path d="M210 30 L290 92 M290 30 L210 92" stroke="#0B3D66" stroke-width="2.5" opacity="0.55"/><rect x="210" y="102" width="60" height="7" rx="3" fill="#0B3D66"/><rect x="210" y="116" width="80" height="5" rx="3" fill="#C3CEDA"/>
</svg>
