<svg xmlns="http://www.w3.org/2000/svg" viewBox="0 0 320 180" width="320" height="180" role="img" aria-label="cpt-list">
  <!-- Generado por scripts/gen_blocks.py. No editar a mano. -->
  <rect x="6" y="6" width="308" height="168" rx="10" fill="none" stroke="#0B3D66" stroke-width="3"/><rect x="20" y="26" width="66" height="128" rx="8" fill="#E9EEF3" stroke="#0B3D66" stroke-width="2.5"/><rect x="30" y="40" width="46" height="7" rx="3" fill="#C3CEDA"/><rect x="30" y="62" width="46" height="7" rx="3" fill="#C3CEDA"/><rect x="30" y="84" width="46" height="7" rx="3" fill="#C3CEDA"/><rect x="30" y="106" width="46" height="7" rx="3" fill="#C3CEDA"/><rect x="100" y="30" width="44" height="32" rx="6" fill="#E9EEF3" stroke="#0B3D66" stroke-width="3"/><path d="M100 30 L144 62 M144 30 L100 62" stroke="#0B3D66" stroke-width="2.5" opacity="0.55"/><rect x="154" y="34" width="100" height="7" rx="3" fill="#0B3D66"/><rect x="154" y="48" width="70" height="5" rx="3" fill="#C3CEDA"/><rect x="100" y="70" width="44" height="32" rx="6" fill="#E9EEF3" stroke="#0B3D66" stroke-width="3"/><path d="M100 70 L144 102 M144 70 L100 102" stroke="#0B3D66" stroke-width="2.5" opacity="0.55"/><rect x="154" y="74" width="100" height="7" rx="3" fill="#0B3D66"/><rect x="154" y="88" width="70" height="5" rx="3" fill="#C3CEDA"/><rect x="100" y="110" width="44" height="32" rx="6" fill="#E9EEF3" stroke="#0B3D66" stroke-width="3"/><path d="M100 110 L144 142 M144 110 L100 142" stroke="#0B3D66" stroke-width="2.5" opacity="0.55"/><rect x="154" y="114" width="100" height="7" rx="3" fill="#0B3D66"/><rect x="154" y="128" width="70" height="5" rx="3" fill="#C3CEDA"/><circle cx="186" cy="158" r="4" fill="#FFCD33"/><circle cx="200" cy="158" r="4" fill="#0B3D66"/><circle cx="214" cy="158" r="4" fill="#0B3D66"/>
</svg>
