<svg xmlns="http://www.w3.org/2000/svg" viewBox="0 0 320 180" width="320" height="180" role="img" aria-label="data-table">
  <!-- Generado por scripts/gen_blocks.py. No editar a mano. -->
  <rect x="6" y="6" width="308" height="168" rx="10" fill="none" stroke="#0B3D66" stroke-width="3"/><rect x="20" y="24" width="280" height="22" rx="5" fill="#0B3D66"/><rect x="32" y="31" width="44" height="6" rx="3" fill="#FFFFFF"/><rect x="100" y="31" width="44" height="6" rx="3" fill="#FFFFFF"/><rect x="168" y="31" width="44" height="6" rx="3" fill="#FFFFFF"/><rect x="236" y="31" width="44" height="6" rx="3" fill="#FFFFFF"/><rect x="20" y="52" width="280" height="20" rx="3" fill="#E9EEF3"/><rect x="32" y="59" width="44" height="6" rx="3" fill="#C3CEDA"/><rect x="100" y="59" width="44" height="6" rx="3" fill="#C3CEDA"/><rect x="168" y="59" width="44" height="6" rx="3" fill="#C3CEDA"/><rect x="236" y="59" width="28" height="6" rx="3" fill="#C3CEDA"/><rect x="32" y="81" width="44" height="6" rx="3" fill="#C3CEDA"/><rect x="100" y="81" width="44" height="6" rx="3" fill="#C3CEDA"/><rect x="168" y="81" width="44" height="6" rx="3" fill="#C3CEDA"/><rect x="236" y="81" width="28" height="6" rx="3" fill="#C3CEDA"/><rect x="20" y="96" width="280" height="20" rx="3" fill="#E9EEF3"/><rect x="32" y="103" width="44" height="6" rx="3" fill="#C3CEDA"/><rect x="100" y="103" width="44" height="6" rx="3" fill="#C3CEDA"/><rect x="168" y="103" width="44" height="6" rx="3" fill="#C3CEDA"/><rect x="236" y="103" width="28" height="6" rx="3" fill="#C3CEDA"/><rect x="32" y="125" width="44" height="6" rx="3" fill="#C3CEDA"/><rect x="100" y="125" width="44" height="6" rx="3" fill="#C3CEDA"/><rect x="168" y="125" width="44" height="6" rx="3" fill="#C3CEDA"/><rect x="236" y="125" width="28" height="6" rx="3" fill="#C3CEDA"/><circle cx="252" cy="152" r="4" fill="#FFCD33"/><circle cx="266" cy="152" r="4" fill="#0B3D66"/><circle cx="280" cy="152" r="4" fill="#0B3D66"/>
</svg>
