<svg xmlns="http://www.w3.org/2000/svg" viewBox="0 0 320 180" width="320" height="180" role="img" aria-label="directory-az">
  <!-- Generado por scripts/gen_blocks.py. No editar a mano. -->
  <rect x="6" y="6" width="308" height="168" rx="10" fill="none" stroke="#0B3D66" stroke-width="3"/><rect x="22" y="20" width="24" height="18" rx="9" fill="#E9EEF3"/><rect x="31" y="26" width="6" height="6" rx="1" fill="#0B3D66"/><rect x="54" y="20" width="24" height="18" rx="9" fill="#E9EEF3"/><rect x="63" y="26" width="6" height="6" rx="1" fill="#0B3D66"/><rect x="86" y="20" width="24" height="18" rx="9" fill="#FFCD33"/><rect x="95" y="26" width="6" height="6" rx="1" fill="#0B3D66"/><rect x="118" y="20" width="24" height="18" rx="9" fill="#E9EEF3"/><rect x="127" y="26" width="6" height="6" rx="1" fill="#0B3D66"/><rect x="150" y="20" width="24" height="18" rx="9" fill="#E9EEF3"/><rect x="159" y="26" width="6" height="6" rx="1" fill="#0B3D66"/><rect x="182" y="20" width="24" height="18" rx="9" fill="#E9EEF3"/><rect x="191" y="26" width="6" height="6" rx="1" fill="#0B3D66"/><rect x="214" y="20" width="24" height="18" rx="9" fill="#E9EEF3"/><rect x="223" y="26" width="6" height="6" rx="1" fill="#0B3D66"/><rect x="246" y="20" width="24" height="18" rx="9" fill="#E9EEF3"/><rect x="255" y="26" width="6" height="6" rx="1" fill="#0B3D66"/><rect x="278" y="20" width="24" height="18" rx="9" fill="#E9EEF3"/><rect x="287" y="26" width="6" height="6" rx="1" fill="#0B3D66"/><rect x="26" y="52" width="14" height="10" rx="3" fill="#0B3D66"/><rect x="26" y="68" width="76" height="1.5" rx="0" fill="#C3CEDA"/><rect x="26" y="78" width="76" height="6" rx="3" fill="#C3CEDA"/><rect x="26" y="97" width="56" height="6" rx="3" fill="#C3CEDA"/><rect x="26" y="116" width="76" height="6" rx="3" fill="#C3CEDA"/><rect x="26" y="135" width="56" height="6" rx="3" fill="#C3CEDA"/><rect x="122" y="52" width="14" height="10" rx="3" fill="#0B3D66"/><rect x="122" y="68" width="76" height="1.5" rx="0" fill="#C3CEDA"/><rect x="122" y="78" width="76" height="6" rx="3" fill="#C3CEDA"/><rect x="122" y="97" width="56" height="6" rx="3" fill="#C3CEDA"/><rect x="122" y="116" width="76" height="6" rx="3" fill="#C3CEDA"/><rect x="122" y="135" width="56" height="6" rx="3" fill="#C3CEDA"/><rect x="218" y="52" width="14" height="10" rx="3" fill="#0B3D66"/><rect x="218" y="68" width="76" height="1.5" rx="0" fill="#C3CEDA"/><rect x="218" y="78" width="76" height="6" rx="3" fill="#C3CEDA"/><rect x="218" y="97" width="56" height="6" rx="3" fill="#C3CEDA"/><rect x="218" y="116" width="76" height="6" rx="3" fill="#C3CEDA"/><rect x="218" y="135" width="56" height="6" rx="3" fill="#C3CEDA"/>
</svg>
