<svg xmlns="http://www.w3.org/2000/svg" viewBox="0 0 320 180" width="320" height="180" role="img" aria-label="donut-stats">
  <!-- Generado por scripts/gen_blocks.py. No editar a mano. -->
  <rect x="6" y="6" width="308" height="168" rx="10" fill="none" stroke="#0B3D66" stroke-width="3"/><circle cx="66" cy="76" r="30" fill="none" stroke="#E9EEF3" stroke-width="9"/><path d="M66.0 46.0 A30 30 0 1 1 36.5 81.6" fill="none" stroke="#FFCD33" stroke-width="9" stroke-linecap="round"/><rect x="40" y="122" width="52" height="7" rx="3" fill="#0B3D66"/><rect x="48" y="136" width="36" height="5" rx="3" fill="#C3CEDA"/><circle cx="160" cy="76" r="30" fill="none" stroke="#E9EEF3" stroke-width="9"/><path d="M160.0 46.0 A30 30 0 0 1 169.3 104.5" fill="none" stroke="#FFCD33" stroke-width="9" stroke-linecap="round"/><rect x="134" y="122" width="52" height="7" rx="3" fill="#0B3D66"/><rect x="142" y="136" width="36" height="5" rx="3" fill="#C3CEDA"/><circle cx="254" cy="76" r="30" fill="none" stroke="#E9EEF3" stroke-width="9"/><path d="M254.0 46.0 A30 30 0 1 1 236.4 51.7" fill="none" stroke="#FFCD33" stroke-width="9" stroke-linecap="round"/><rect x="228" y="122" width="52" height="7" rx="3" fill="#0B3D66"/><rect x="236" y="136" width="36" height="5" rx="3" fill="#C3CEDA"/>
</svg>
