<svg xmlns="http://www.w3.org/2000/svg" viewBox="0 0 320 180" width="320" height="180" role="img" aria-label="downloads">
  <!-- Generado por scripts/gen_blocks.py. No editar a mano. -->
  <rect x="6" y="6" width="308" height="168" rx="10" fill="none" stroke="#0B3D66" stroke-width="3"/><rect x="20" y="34" width="280" height="30" rx="6" fill="none" stroke="#0B3D66" stroke-width="2.5"/><rect x="34" y="42" width="16" height="14" rx="3" fill="#0B3D66"/><rect x="60" y="46" width="140" height="6" rx="3" fill="#C3CEDA"/><circle cx="280" cy="49" r="8" fill="#FFCD33"/><rect x="20" y="74" width="280" height="30" rx="6" fill="none" stroke="#0B3D66" stroke-width="2.5"/><rect x="34" y="82" width="16" height="14" rx="3" fill="#0B3D66"/><rect x="60" y="86" width="140" height="6" rx="3" fill="#C3CEDA"/><circle cx="280" cy="89" r="8" fill="#FFCD33"/><rect x="20" y="114" width="280" height="30" rx="6" fill="none" stroke="#0B3D66" stroke-width="2.5"/><rect x="34" y="122" width="16" height="14" rx="3" fill="#0B3D66"/><rect x="60" y="126" width="140" height="6" rx="3" fill="#C3CEDA"/><circle cx="280" cy="129" r="8" fill="#FFCD33"/>
</svg>
