<svg xmlns="http://www.w3.org/2000/svg" viewBox="0 0 320 180" width="320" height="180" role="img" aria-label="event-agenda">
  <!-- Generado por scripts/gen_blocks.py. No editar a mano. -->
  <rect x="6" y="6" width="308" height="168" rx="10" fill="none" stroke="#0B3D66" stroke-width="3"/><path d="M76 24 V154" stroke="#C3CEDA" stroke-width="2.5"/><rect x="22" y="32" width="40" height="6" rx="3" fill="#C3CEDA"/><circle cx="76" cy="38" r="6" fill="#0B3D66"/><rect x="94" y="26" width="206" height="30" rx="6" fill="none" stroke="#0B3D66" stroke-width="2.5"/><rect x="106" y="35" width="110" height="6" rx="3" fill="#0B3D66"/><rect x="22" y="76" width="40" height="6" rx="3" fill="#C3CEDA"/><circle cx="76" cy="82" r="6" fill="#FFCD33"/><rect x="94" y="70" width="206" height="44" rx="6" fill="#E9EEF3" stroke="#0B3D66" stroke-width="2.5"/><rect x="106" y="79" width="110" height="6" rx="3" fill="#0B3D66"/><rect x="106" y="94" width="150" height="5" rx="3" fill="#C3CEDA"/><rect x="22" y="134" width="40" height="6" rx="3" fill="#C3CEDA"/><circle cx="76" cy="140" r="6" fill="#0B3D66"/><rect x="94" y="128" width="206" height="24" rx="6" fill="none" stroke="#0B3D66" stroke-width="2.5"/><rect x="106" y="137" width="110" height="6" rx="3" fill="#0B3D66"/>
</svg>
