<svg xmlns="http://www.w3.org/2000/svg" viewBox="0 0 320 180" width="320" height="180" role="img" aria-label="event-countdown">
  <!-- Generado por scripts/gen_blocks.py. No editar a mano. -->
  <rect x="6" y="6" width="308" height="168" rx="10" fill="none" stroke="#0B3D66" stroke-width="3"/><rect x="94" y="26" width="132" height="9" rx="4" fill="#0B3D66"/><rect x="26" y="52" width="58" height="56" rx="8" fill="#E9EEF3"/><rect x="39" y="66" width="32" height="16" rx="4" fill="#0B3D66"/><rect x="41" y="90" width="28" height="5" rx="3" fill="#C3CEDA"/><circle cx="92" cy="72" r="2.5" fill="#0B3D66"/><circle cx="92" cy="86" r="2.5" fill="#0B3D66"/><rect x="98" y="52" width="58" height="56" rx="8" fill="#E9EEF3"/><rect x="111" y="66" width="32" height="16" rx="4" fill="#0B3D66"/><rect x="113" y="90" width="28" height="5" rx="3" fill="#C3CEDA"/><circle cx="164" cy="72" r="2.5" fill="#0B3D66"/><circle cx="164" cy="86" r="2.5" fill="#0B3D66"/><rect x="170" y="52" width="58" height="56" rx="8" fill="#E9EEF3"/><rect x="183" y="66" width="32" height="16" rx="4" fill="#0B3D66"/><rect x="185" y="90" width="28" height="5" rx="3" fill="#C3CEDA"/><circle cx="236" cy="72" r="2.5" fill="#0B3D66"/><circle cx="236" cy="86" r="2.5" fill="#0B3D66"/><rect x="242" y="52" width="58" height="56" rx="8" fill="#E9EEF3"/><rect x="255" y="66" width="32" height="16" rx="4" fill="#0B3D66"/><rect x="257" y="90" width="28" height="5" rx="3" fill="#C3CEDA"/><rect x="132" y="126" width="56" height="22" rx="9" fill="#FFCD33"/>
</svg>
