<svg xmlns="http://www.w3.org/2000/svg" viewBox="0 0 320 180" width="320" height="180" role="img" aria-label="faq-accordion">
  <!-- Generado por scripts/gen_blocks.py. No editar a mano. -->
  <rect x="6" y="6" width="308" height="168" rx="10" fill="none" stroke="#0B3D66" stroke-width="3"/><rect x="20" y="28" width="280" height="24" rx="6" fill="#E9EEF3" stroke="#0B3D66" stroke-width="2.5"/><rect x="34" y="37" width="150" height="6" rx="3" fill="#C3CEDA"/><path d="M270 40 H282 M276 34 V46" stroke="#0B3D66" stroke-width="2.5" stroke-linecap="round"/><rect x="20" y="60" width="280" height="24" rx="6" fill="none" stroke="#0B3D66" stroke-width="2.5"/><rect x="34" y="69" width="150" height="6" rx="3" fill="#C3CEDA"/><path d="M270 72 H282 M276 66 V78" stroke="#0B3D66" stroke-width="2.5" stroke-linecap="round"/><rect x="20" y="92" width="280" height="24" rx="6" fill="none" stroke="#0B3D66" stroke-width="2.5"/><rect x="34" y="101" width="150" height="6" rx="3" fill="#C3CEDA"/><path d="M270 104 H282 M276 98 V110" stroke="#0B3D66" stroke-width="2.5" stroke-linecap="round"/><rect x="20" y="124" width="280" height="24" rx="6" fill="none" stroke="#0B3D66" stroke-width="2.5"/><rect x="34" y="133" width="150" height="6" rx="3" fill="#C3CEDA"/><path d="M270 136 H282 M276 130 V142" stroke="#0B3D66" stroke-width="2.5" stroke-linecap="round"/>
</svg>
