<svg xmlns="http://www.w3.org/2000/svg" viewBox="0 0 320 180" width="320" height="180" role="img" aria-label="file-upload">
  <!-- Generado por scripts/gen_blocks.py. No editar a mano. -->
  <rect x="6" y="6" width="308" height="168" rx="10" fill="none" stroke="#0B3D66" stroke-width="3"/><rect x="20" y="22" width="280" height="94" rx="10" fill="#E9EEF3" stroke="#0B3D66" stroke-width="3" stroke-dasharray="9 8"/><path d="M160 84 V48 M146 62 L160 46 L174 62" stroke="#0B3D66" stroke-width="3.5" fill="none" stroke-linecap="round" stroke-linejoin="round"/><rect x="122" y="94" width="76" height="6" rx="3" fill="#C3CEDA"/><rect x="20" y="128" width="280" height="30" rx="6" fill="none" stroke="#0B3D66" stroke-width="2.5"/><rect x="32" y="137" width="15" height="13" rx="2" fill="#0B3D66"/><rect x="58" y="136" width="82" height="5" rx="3" fill="#C3CEDA"/><rect x="58" y="148" width="152" height="5" rx="2" fill="#E9EEF3"/><rect x="58" y="148" width="98" height="5" rx="2" fill="#FFCD33"/><circle cx="282" cy="143" r="8" fill="#0B3D66"/><path d="M278.4 143 L281.46 145.88 L285.6 139.76" stroke="#FFFFFF" stroke-width="2.5" fill="none" stroke-linecap="round" stroke-linejoin="round"/>
</svg>
