<svg xmlns="http://www.w3.org/2000/svg" viewBox="0 0 320 180" width="320" height="180" role="img" aria-label="floor-plan">
  <!-- Generado por scripts/gen_blocks.py. No editar a mano. -->
  <rect x="6" y="6" width="308" height="168" rx="10" fill="none" stroke="#0B3D66" stroke-width="3"/><rect x="30" y="36" width="138" height="114" rx="2" fill="#E9EEF3"/><rect x="172" y="102" width="118" height="48" rx="2" fill="#E9EEF3"/><rect x="28" y="34" width="264" height="118" rx="3" fill="none" stroke="#0B3D66" stroke-width="4"/><rect x="168" y="34" width="4" height="42" rx="0" fill="#0B3D66"/><rect x="168" y="96" width="4" height="56" rx="0" fill="#0B3D66"/><path d="M170 96 A20 20 0 0 0 190 76" stroke="#0B3D66" stroke-width="2" fill="none" stroke-dasharray="3 3"/><rect x="172" y="98" width="26" height="4" rx="0" fill="#0B3D66"/><rect x="228" y="98" width="62" height="4" rx="0" fill="#0B3D66"/><circle cx="213" cy="100" r="4" fill="#FFCD33"/><path d="M28 24 L292 24" stroke="#C3CEDA" stroke-width="2" stroke-dasharray="2 5" stroke-linecap="round"/><rect x="28" y="19" width="2" height="10" rx="0" fill="#C3CEDA"/><rect x="290" y="19" width="2" height="10" rx="0" fill="#C3CEDA"/>
</svg>
