<svg xmlns="http://www.w3.org/2000/svg" viewBox="0 0 320 180" width="320" height="180" role="img" aria-label="footer-columns">
  <!-- Generado por scripts/gen_blocks.py. No editar a mano. -->
  <rect x="20" y="22" width="118" height="54" rx="6" fill="#E9EEF3" stroke="#0B3D66" stroke-width="3"/><path d="M20 22 L138 76 M138 22 L20 76" stroke="#0B3D66" stroke-width="2.5" opacity="0.55"/><rect x="152" y="30" width="148" height="5" rx="3" fill="#C3CEDA"/><rect x="152" y="43" width="148" height="5" rx="3" fill="#C3CEDA"/><rect x="152" y="56" width="88.8" height="5" rx="3" fill="#C3CEDA"/><defs><clipPath id="c"><rect x="6" y="6" width="308" height="168" rx="10"/></clipPath></defs><g clip-path="url(#c)"><rect x="6" y="92" width="308" height="82" rx="0" fill="#0B3D66"/><rect x="24" y="106" width="34" height="7" rx="3" fill="#FFFFFF"/><rect x="24" y="122" width="48" height="5" rx="2" fill="#8FA9BF"/><rect x="24" y="133" width="48" height="5" rx="2" fill="#8FA9BF"/><rect x="24" y="144" width="48" height="5" rx="2" fill="#8FA9BF"/><rect x="96" y="106" width="34" height="7" rx="3" fill="#FFFFFF"/><rect x="96" y="122" width="48" height="5" rx="2" fill="#8FA9BF"/><rect x="96" y="133" width="48" height="5" rx="2" fill="#8FA9BF"/><rect x="96" y="144" width="48" height="5" rx="2" fill="#8FA9BF"/><rect x="168" y="106" width="34" height="7" rx="3" fill="#FFFFFF"/><rect x="168" y="122" width="48" height="5" rx="2" fill="#8FA9BF"/><rect x="168" y="133" width="48" height="5" rx="2" fill="#8FA9BF"/><rect x="168" y="144" width="48" height="5" rx="2" fill="#8FA9BF"/><rect x="240" y="106" width="34" height="7" rx="3" fill="#FFFFFF"/><rect x="240" y="122" width="48" height="5" rx="2" fill="#8FA9BF"/><rect x="240" y="133" width="48" height="5" rx="2" fill="#8FA9BF"/><rect x="240" y="144" width="48" height="5" rx="2" fill="#8FA9BF"/><rect x="20" y="158" width="280" height="1.5" rx="0" fill="#8FA9BF"/></g><rect x="6" y="6" width="308" height="168" rx="10" fill="none" stroke="#0B3D66" stroke-width="3"/>
</svg>
