<svg xmlns="http://www.w3.org/2000/svg" viewBox="0 0 320 180" width="320" height="180" role="img" aria-label="gallery-grid">
  <!-- Generado por scripts/gen_blocks.py. No editar a mano. -->
  <rect x="6" y="6" width="308" height="168" rx="10" fill="none" stroke="#0B3D66" stroke-width="3"/><rect x="20" y="26" width="88" height="60" rx="6" fill="#E9EEF3" stroke="#0B3D66" stroke-width="3"/><path d="M20 26 L108 86 M108 26 L20 86" stroke="#0B3D66" stroke-width="2.5" opacity="0.55"/><rect x="116" y="26" width="88" height="60" rx="6" fill="#E9EEF3" stroke="#0B3D66" stroke-width="3"/><path d="M116 26 L204 86 M204 26 L116 86" stroke="#0B3D66" stroke-width="2.5" opacity="0.55"/><rect x="212" y="26" width="88" height="60" rx="6" fill="#E9EEF3" stroke="#0B3D66" stroke-width="3"/><path d="M212 26 L300 86 M300 26 L212 86" stroke="#0B3D66" stroke-width="2.5" opacity="0.55"/><rect x="20" y="94" width="88" height="60" rx="6" fill="#E9EEF3" stroke="#0B3D66" stroke-width="3"/><path d="M20 94 L108 154 M108 94 L20 154" stroke="#0B3D66" stroke-width="2.5" opacity="0.55"/><rect x="116" y="94" width="88" height="60" rx="6" fill="#E9EEF3" stroke="#0B3D66" stroke-width="3"/><path d="M116 94 L204 154 M204 94 L116 154" stroke="#0B3D66" stroke-width="2.5" opacity="0.55"/><rect x="212" y="94" width="88" height="60" rx="6" fill="#E9EEF3" stroke="#0B3D66" stroke-width="3"/><path d="M212 94 L300 154 M300 94 L212 154" stroke="#0B3D66" stroke-width="2.5" opacity="0.55"/>
</svg>
