<svg xmlns="http://www.w3.org/2000/svg" viewBox="0 0 320 180" width="320" height="180" role="img" aria-label="google-reviews">
  <!-- Generado por scripts/gen_blocks.py. No editar a mano. -->
  <rect x="6" y="6" width="308" height="168" rx="10" fill="none" stroke="#0B3D66" stroke-width="3"/><polygon points="70.0,51.0 72.9,58.0 80.5,58.6 74.7,63.5 76.5,70.9 70.0,67.0 63.5,70.9 65.3,63.5 59.5,58.6 67.1,58.0" fill="#FFCD33"/><polygon points="106.0,51.0 108.9,58.0 116.5,58.6 110.7,63.5 112.5,70.9 106.0,67.0 99.5,70.9 101.3,63.5 95.5,58.6 103.1,58.0" fill="#FFCD33"/><polygon points="142.0,51.0 144.9,58.0 152.5,58.6 146.7,63.5 148.5,70.9 142.0,67.0 135.5,70.9 137.3,63.5 131.5,58.6 139.1,58.0" fill="#FFCD33"/><polygon points="178.0,51.0 180.9,58.0 188.5,58.6 182.7,63.5 184.5,70.9 178.0,67.0 171.5,70.9 173.3,63.5 167.5,58.6 175.1,58.0" fill="#FFCD33"/><polygon points="214.0,51.0 216.9,58.0 224.5,58.6 218.7,63.5 220.5,70.9 214.0,67.0 207.5,70.9 209.3,63.5 203.5,58.6 211.1,58.0" fill="#FFCD33"/><rect x="70" y="92" width="180" height="6" rx="3" fill="#C3CEDA"/><rect x="70" y="105" width="108" height="6" rx="3" fill="#C3CEDA"/><rect x="70" y="128" width="80" height="6" rx="3" fill="#C3CEDA"/>
</svg>
