<svg xmlns="http://www.w3.org/2000/svg" viewBox="0 0 320 180" width="320" height="180" role="img" aria-label="horizontal-scroll">
  <!-- Generado por scripts/gen_blocks.py. No editar a mano. -->
  <defs><clipPath id="c"><rect x="6" y="6" width="308" height="168" rx="10"/></clipPath></defs><g clip-path="url(#c)"><rect x="20" y="26" width="96" height="74" rx="6" fill="#E9EEF3" stroke="#0B3D66" stroke-width="3"/><path d="M20 26 L116 100 M116 26 L20 100" stroke="#0B3D66" stroke-width="2.5" opacity="0.55"/><rect x="20" y="108" width="62" height="7" rx="3" fill="#0B3D66"/><rect x="20" y="122" width="88" height="5" rx="3" fill="#C3CEDA"/><rect x="128" y="26" width="96" height="74" rx="6" fill="#E9EEF3" stroke="#0B3D66" stroke-width="3"/><path d="M128 26 L224 100 M224 26 L128 100" stroke="#0B3D66" stroke-width="2.5" opacity="0.55"/><rect x="128" y="108" width="62" height="7" rx="3" fill="#0B3D66"/><rect x="128" y="122" width="88" height="5" rx="3" fill="#C3CEDA"/><rect x="236" y="26" width="96" height="74" rx="6" fill="#E9EEF3" stroke="#0B3D66" stroke-width="3"/><path d="M236 26 L332 100 M332 26 L236 100" stroke="#0B3D66" stroke-width="2.5" opacity="0.55"/><rect x="236" y="108" width="62" height="7" rx="3" fill="#0B3D66"/><rect x="236" y="122" width="88" height="5" rx="3" fill="#C3CEDA"/><rect x="20" y="146" width="200" height="6" rx="3" fill="#E9EEF3"/><rect x="20" y="146" width="96" height="6" rx="3" fill="#0B3D66"/></g><rect x="6" y="6" width="308" height="168" rx="10" fill="none" stroke="#0B3D66" stroke-width="3"/>
</svg>
