<svg xmlns="http://www.w3.org/2000/svg" viewBox="0 0 320 180" width="320" height="180" role="img" aria-label="hotspot-image">
  <!-- Generado por scripts/gen_blocks.py. No editar a mano. -->
  <rect x="6" y="6" width="308" height="168" rx="10" fill="none" stroke="#0B3D66" stroke-width="3"/><rect x="20" y="24" width="180" height="130" rx="6" fill="#E9EEF3" stroke="#0B3D66" stroke-width="3"/><path d="M20 24 L200 154 M200 24 L20 154" stroke="#0B3D66" stroke-width="2.5" opacity="0.55"/><circle cx="60" cy="62" r="9" fill="#FFCD33"/><circle cx="60" cy="62" r="3.5" fill="#0B3D66"/><circle cx="112" cy="120" r="9" fill="#FFCD33"/><circle cx="112" cy="120" r="3.5" fill="#0B3D66"/><circle cx="166" cy="52" r="9" fill="#FFCD33"/><circle cx="166" cy="52" r="3.5" fill="#0B3D66"/><path d="M166 52 L212 52" stroke="#0B3D66" stroke-width="2" stroke-dasharray="3 4" stroke-linecap="round"/><rect x="212" y="34" width="88" height="66" rx="8" fill="#FFFFFF" stroke="#0B3D66" stroke-width="2.5"/><rect x="224" y="46" width="52" height="6" rx="3" fill="#0B3D66"/><rect x="224" y="62" width="64" height="5" rx="3" fill="#C3CEDA"/><rect x="224" y="74" width="38.4" height="5" rx="3" fill="#C3CEDA"/>
</svg>
