<svg xmlns="http://www.w3.org/2000/svg" viewBox="0 0 320 180" width="320" height="180" role="img" aria-label="latest-news">
  <!-- Generado por scripts/gen_blocks.py. No editar a mano. -->
  <rect x="6" y="6" width="308" height="168" rx="10" fill="none" stroke="#0B3D66" stroke-width="3"/><rect x="26" y="26" width="80" height="54" rx="6" fill="#E9EEF3" stroke="#0B3D66" stroke-width="3"/><path d="M26 26 L106 80 M106 26 L26 80" stroke="#0B3D66" stroke-width="2.5" opacity="0.55"/><rect x="26" y="88" width="40" height="5" rx="3" fill="#FFCD33"/><rect x="26" y="100" width="80" height="7" rx="3" fill="#0B3D66"/><rect x="26" y="114" width="80" height="5" rx="3" fill="#C3CEDA"/><rect x="26" y="125" width="48" height="5" rx="3" fill="#C3CEDA"/><rect x="118" y="26" width="80" height="54" rx="6" fill="#E9EEF3" stroke="#0B3D66" stroke-width="3"/><path d="M118 26 L198 80 M198 26 L118 80" stroke="#0B3D66" stroke-width="2.5" opacity="0.55"/><rect x="118" y="88" width="40" height="5" rx="3" fill="#FFCD33"/><rect x="118" y="100" width="80" height="7" rx="3" fill="#0B3D66"/><rect x="118" y="114" width="80" height="5" rx="3" fill="#C3CEDA"/><rect x="118" y="125" width="48" height="5" rx="3" fill="#C3CEDA"/><rect x="210" y="26" width="80" height="54" rx="6" fill="#E9EEF3" stroke="#0B3D66" stroke-width="3"/><path d="M210 26 L290 80 M290 26 L210 80" stroke="#0B3D66" stroke-width="2.5" opacity="0.55"/><rect x="210" y="88" width="40" height="5" rx="3" fill="#FFCD33"/><rect x="210" y="100" width="80" height="7" rx="3" fill="#0B3D66"/><rect x="210" y="114" width="80" height="5" rx="3" fill="#C3CEDA"/><rect x="210" y="125" width="48" height="5" rx="3" fill="#C3CEDA"/>
</svg>
