<svg xmlns="http://www.w3.org/2000/svg" viewBox="0 0 320 180" width="320" height="180" role="img" aria-label="lesson-player">
  <!-- Generado por scripts/gen_blocks.py. No editar a mano. -->
  <rect x="6" y="6" width="308" height="168" rx="10" fill="none" stroke="#0B3D66" stroke-width="3"/><rect x="20" y="26" width="180" height="104" rx="6" fill="#E9EEF3" stroke="#0B3D66" stroke-width="3"/><path d="M20 26 L200 130 M200 26 L20 130" stroke="#0B3D66" stroke-width="2.5" opacity="0.55"/><circle cx="110" cy="74" r="18" fill="#0B3D66"/><path d="M104.96 66.44 L118.1 74 L104.96 81.56 Z" fill="#FFFFFF"/><rect x="20" y="138" width="180" height="6" rx="3" fill="#E9EEF3"/><rect x="20" y="138" width="108" height="6" rx="3" fill="#FFCD33"/><circle cx="222" cy="36" r="7" fill="#0B3D66"/><path d="M218.6 36 L221.49 38.72 L225.4 32.94" stroke="#FFFFFF" stroke-width="2.5" fill="none" stroke-linecap="round" stroke-linejoin="round"/><rect x="238" y="33" width="54" height="6" rx="3" fill="#C3CEDA"/><rect x="208" y="49" width="94" height="24" rx="5" fill="#E9EEF3"/><circle cx="222" cy="61" r="7" fill="#FFCD33"/><rect x="238" y="58" width="54" height="6" rx="3" fill="#0B3D66"/><circle cx="222" cy="86" r="7" fill="#C3CEDA"/><rect x="238" y="83" width="54" height="6" rx="3" fill="#C3CEDA"/><circle cx="222" cy="111" r="7" fill="#C3CEDA"/><rect x="238" y="108" width="54" height="6" rx="3" fill="#C3CEDA"/><circle cx="222" cy="136" r="7" fill="#C3CEDA"/><rect x="238" y="133" width="54" height="6" rx="3" fill="#C3CEDA"/>
</svg>
