<svg xmlns="http://www.w3.org/2000/svg" viewBox="0 0 320 180" width="320" height="180" role="img" aria-label="masonry-grid">
  <!-- Generado por scripts/gen_blocks.py. No editar a mano. -->
  <defs><clipPath id="c"><rect x="6" y="6" width="308" height="168" rx="10"/></clipPath></defs><g clip-path="url(#c)"><rect x="20" y="20" width="64" height="46" rx="6" fill="#E9EEF3" stroke="#0B3D66" stroke-width="3"/><path d="M20 20 L84 66 M84 20 L20 66" stroke="#0B3D66" stroke-width="2.5" opacity="0.55"/><rect x="20" y="74" width="64" height="66" rx="6" fill="#E9EEF3" stroke="#0B3D66" stroke-width="3"/><path d="M20 74 L84 140 M84 74 L20 140" stroke="#0B3D66" stroke-width="2.5" opacity="0.55"/><rect x="20" y="148" width="64" height="40" rx="6" fill="#E9EEF3" stroke="#0B3D66" stroke-width="3"/><path d="M20 148 L84 188 M84 148 L20 188" stroke="#0B3D66" stroke-width="2.5" opacity="0.55"/><rect x="92" y="20" width="64" height="76" rx="6" fill="#E9EEF3" stroke="#0B3D66" stroke-width="3"/><path d="M92 20 L156 96 M156 20 L92 96" stroke="#0B3D66" stroke-width="2.5" opacity="0.55"/><rect x="92" y="104" width="64" height="42" rx="6" fill="#E9EEF3" stroke="#0B3D66" stroke-width="3"/><path d="M92 104 L156 146 M156 104 L92 146" stroke="#0B3D66" stroke-width="2.5" opacity="0.55"/><rect x="92" y="154" width="64" height="58" rx="6" fill="#E9EEF3" stroke="#0B3D66" stroke-width="3"/><path d="M92 154 L156 212 M156 154 L92 212" stroke="#0B3D66" stroke-width="2.5" opacity="0.55"/><rect x="164" y="20" width="64" height="38" rx="6" fill="#E9EEF3" stroke="#0B3D66" stroke-width="3"/><path d="M164 20 L228 58 M228 20 L164 58" stroke="#0B3D66" stroke-width="2.5" opacity="0.55"/><rect x="164" y="66" width="64" height="58" rx="6" fill="#E9EEF3" stroke="#0B3D66" stroke-width="3"/><path d="M164 66 L228 124 M228 66 L164 124" stroke="#0B3D66" stroke-width="2.5" opacity="0.55"/><rect x="164" y="132" width="64" height="70" rx="6" fill="#E9EEF3" stroke="#0B3D66" stroke-width="3"/><path d="M164 132 L228 202 M228 132 L164 202" stroke="#0B3D66" stroke-width="2.5" opacity="0.55"/><rect x="236" y="20" width="64" height="62" rx="6" fill="#E9EEF3" stroke="#0B3D66" stroke-width="3"/><path d="M236 20 L300 82 M300 20 L236 82" stroke="#0B3D66" stroke-width="2.5" opacity="0.55"/><rect x="236" y="90" width="64" height="80" rx="6" fill="#E9EEF3" stroke="#0B3D66" stroke-width="3"/><path d="M236 90 L300 170 M300 90 L236 170" stroke="#0B3D66" stroke-width="2.5" opacity="0.55"/><rect x="236" y="178" width="64" height="36" rx="6" fill="#E9EEF3" stroke="#0B3D66" stroke-width="3"/><path d="M236 178 L300 214 M300 178 L236 214" stroke="#0B3D66" stroke-width="2.5" opacity="0.55"/></g><rect x="6" y="6" width="308" height="168" rx="10" fill="none" stroke="#0B3D66" stroke-width="3"/>
</svg>
