<svg xmlns="http://www.w3.org/2000/svg" viewBox="0 0 320 180" width="320" height="180" role="img" aria-label="mega-menu">
  <!-- Generado por scripts/gen_blocks.py. No editar a mano. -->
  <rect x="6" y="6" width="308" height="168" rx="10" fill="none" stroke="#0B3D66" stroke-width="3"/><rect x="20" y="22" width="42" height="14" rx="4" fill="#0B3D66"/><rect x="84" y="26" width="34" height="6" rx="3" fill="#C3CEDA"/><rect x="140" y="26" width="34" height="6" rx="3" fill="#0B3D66"/><path d="M180 27 L184 31 L188 27" stroke="#0B3D66" stroke-width="2.5" fill="none" stroke-linecap="round" stroke-linejoin="round"/><rect x="196" y="26" width="34" height="6" rx="3" fill="#C3CEDA"/><rect x="56" y="50" width="244" height="104" rx="8" fill="#FFFFFF" stroke="#0B3D66" stroke-width="2.5"/><rect x="70" y="62" width="48" height="6" rx="3" fill="#0B3D66"/><rect x="70" y="78" width="48" height="5" rx="3" fill="#C3CEDA"/><rect x="70" y="91" width="48" height="5" rx="3" fill="#C3CEDA"/><rect x="70" y="104" width="28.8" height="5" rx="3" fill="#C3CEDA"/><rect x="136" y="62" width="48" height="6" rx="3" fill="#0B3D66"/><rect x="136" y="78" width="48" height="5" rx="3" fill="#C3CEDA"/><rect x="136" y="91" width="48" height="5" rx="3" fill="#C3CEDA"/><rect x="136" y="104" width="28.8" height="5" rx="3" fill="#C3CEDA"/><rect x="204" y="62" width="82" height="80" rx="6" fill="#E9EEF3" stroke="#0B3D66" stroke-width="3"/><path d="M204 62 L286 142 M286 62 L204 142" stroke="#0B3D66" stroke-width="2.5" opacity="0.55"/>
</svg>
