<svg xmlns="http://www.w3.org/2000/svg" viewBox="0 0 320 180" width="320" height="180" role="img" aria-label="menu-carta">
  <!-- Generado por scripts/gen_blocks.py. No editar a mano. -->
  <rect x="6" y="6" width="308" height="168" rx="10" fill="none" stroke="#0B3D66" stroke-width="3"/><rect x="22" y="24" width="52" height="7" rx="3" fill="#FFCD33"/><rect x="22" y="44" width="56" height="6" rx="3" fill="#0B3D66"/><path d="M86 47 L126 47" stroke="#C3CEDA" stroke-width="2" stroke-dasharray="2 5" stroke-linecap="round"/><rect x="132" y="44" width="20" height="6" rx="3" fill="#C3CEDA"/><rect x="22" y="55" width="74" height="4" rx="3" fill="#C3CEDA"/><rect x="22" y="71" width="52" height="6" rx="3" fill="#0B3D66"/><path d="M86 74 L126 74" stroke="#C3CEDA" stroke-width="2" stroke-dasharray="2 5" stroke-linecap="round"/><rect x="132" y="71" width="20" height="6" rx="3" fill="#C3CEDA"/><rect x="22" y="82" width="74" height="4" rx="3" fill="#C3CEDA"/><rect x="22" y="98" width="48" height="6" rx="3" fill="#0B3D66"/><path d="M86 101 L126 101" stroke="#C3CEDA" stroke-width="2" stroke-dasharray="2 5" stroke-linecap="round"/><rect x="132" y="98" width="20" height="6" rx="3" fill="#C3CEDA"/><rect x="22" y="109" width="74" height="4" rx="3" fill="#C3CEDA"/><rect x="22" y="125" width="44" height="6" rx="3" fill="#0B3D66"/><path d="M86 128 L126 128" stroke="#C3CEDA" stroke-width="2" stroke-dasharray="2 5" stroke-linecap="round"/><rect x="132" y="125" width="20" height="6" rx="3" fill="#C3CEDA"/><rect x="22" y="136" width="74" height="4" rx="3" fill="#C3CEDA"/><rect x="168" y="24" width="52" height="7" rx="3" fill="#FFCD33"/><rect x="168" y="44" width="56" height="6" rx="3" fill="#0B3D66"/><path d="M232 47 L272 47" stroke="#C3CEDA" stroke-width="2" stroke-dasharray="2 5" stroke-linecap="round"/><rect x="278" y="44" width="20" height="6" rx="3" fill="#C3CEDA"/><rect x="168" y="55" width="74" height="4" rx="3" fill="#C3CEDA"/><rect x="168" y="71" width="52" height="6" rx="3" fill="#0B3D66"/><path d="M232 74 L272 74" stroke="#C3CEDA" stroke-width="2" stroke-dasharray="2 5" stroke-linecap="round"/><rect x="278" y="71" width="20" height="6" rx="3" fill="#C3CEDA"/><rect x="168" y="82" width="74" height="4" rx="3" fill="#C3CEDA"/><rect x="168" y="98" width="48" height="6" rx="3" fill="#0B3D66"/><path d="M232 101 L272 101" stroke="#C3CEDA" stroke-width="2" stroke-dasharray="2 5" stroke-linecap="round"/><rect x="278" y="98" width="20" height="6" rx="3" fill="#C3CEDA"/><rect x="168" y="109" width="74" height="4" rx="3" fill="#C3CEDA"/><rect x="168" y="125" width="44" height="6" rx="3" fill="#0B3D66"/><path d="M232 128 L272 128" stroke="#C3CEDA" stroke-width="2" stroke-dasharray="2 5" stroke-linecap="round"/><rect x="278" y="125" width="20" height="6" rx="3" fill="#C3CEDA"/><rect x="168" y="136" width="74" height="4" rx="3" fill="#C3CEDA"/>
</svg>
