<svg xmlns="http://www.w3.org/2000/svg" viewBox="0 0 320 180" width="320" height="180" role="img" aria-label="multi-step-form">
  <!-- Generado por scripts/gen_blocks.py. No editar a mano. -->
  <rect x="6" y="6" width="308" height="168" rx="10" fill="none" stroke="#0B3D66" stroke-width="3"/><path d="M40 30 H280" stroke="#C3CEDA" stroke-width="2.5"/><circle cx="40" cy="30" r="11" fill="#FFCD33"/><circle cx="120" cy="30" r="11" fill="#0B3D66"/><circle cx="200" cy="30" r="11" fill="#0B3D66"/><circle cx="280" cy="30" r="11" fill="#0B3D66"/><rect x="20" y="58" width="168" height="24" rx="5" fill="none" stroke="#0B3D66" stroke-width="2.5"/><rect x="20" y="90" width="168" height="24" rx="5" fill="none" stroke="#0B3D66" stroke-width="2.5"/><rect x="20" y="122" width="168" height="24" rx="5" fill="none" stroke="#0B3D66" stroke-width="2.5"/><rect x="202" y="58" width="98" height="88" rx="8" fill="#E9EEF3" stroke="#0B3D66" stroke-width="2.5"/><rect x="214" y="72" width="74" height="5" rx="3" fill="#C3CEDA"/><rect x="214" y="86" width="74" height="5" rx="3" fill="#C3CEDA"/><rect x="214" y="100" width="44.4" height="5" rx="3" fill="#C3CEDA"/><rect x="214" y="120" width="74" height="18" rx="9" fill="#FFCD33"/>
</svg>
