<svg xmlns="http://www.w3.org/2000/svg" viewBox="0 0 320 180" width="320" height="180" role="img" aria-label="news-list">
  <!-- Generado por scripts/gen_blocks.py. No editar a mano. -->
  <rect x="6" y="6" width="308" height="168" rx="10" fill="none" stroke="#0B3D66" stroke-width="3"/><rect x="20" y="28" width="56" height="34" rx="6" fill="#E9EEF3" stroke="#0B3D66" stroke-width="3"/><path d="M20 28 L76 62 M76 28 L20 62" stroke="#0B3D66" stroke-width="2.5" opacity="0.55"/><rect x="88" y="30" width="40" height="5" rx="3" fill="#FFCD33"/><rect x="88" y="42" width="180" height="7" rx="3" fill="#0B3D66"/><rect x="88" y="54" width="130" height="5" rx="3" fill="#C3CEDA"/><rect x="20" y="70" width="56" height="34" rx="6" fill="#E9EEF3" stroke="#0B3D66" stroke-width="3"/><path d="M20 70 L76 104 M76 70 L20 104" stroke="#0B3D66" stroke-width="2.5" opacity="0.55"/><rect x="88" y="72" width="40" height="5" rx="3" fill="#FFCD33"/><rect x="88" y="84" width="180" height="7" rx="3" fill="#0B3D66"/><rect x="88" y="96" width="130" height="5" rx="3" fill="#C3CEDA"/><rect x="20" y="112" width="56" height="34" rx="6" fill="#E9EEF3" stroke="#0B3D66" stroke-width="3"/><path d="M20 112 L76 146 M76 112 L20 146" stroke="#0B3D66" stroke-width="2.5" opacity="0.55"/><rect x="88" y="114" width="40" height="5" rx="3" fill="#FFCD33"/><rect x="88" y="126" width="180" height="7" rx="3" fill="#0B3D66"/><rect x="88" y="138" width="130" height="5" rx="3" fill="#C3CEDA"/>
</svg>
