<svg xmlns="http://www.w3.org/2000/svg" viewBox="0 0 320 180" width="320" height="180" role="img" aria-label="opening-hours">
  <!-- Generado por scripts/gen_blocks.py. No editar a mano. -->
  <rect x="6" y="6" width="308" height="168" rx="10" fill="none" stroke="#0B3D66" stroke-width="3"/><circle cx="74" cy="90" r="40" fill="none" stroke="#0B3D66" stroke-width="3"/><path d="M74 90 V66 M74 90 L92 100" stroke="#0B3D66" stroke-width="3" stroke-linecap="round" fill="none"/><circle cx="74" cy="90" r="4" fill="#FFCD33"/><rect x="146" y="32" width="54" height="6" rx="3" fill="#C3CEDA"/><rect x="232" y="32" width="56" height="6" rx="3" fill="#C3CEDA"/><rect x="146" y="53" width="54" height="6" rx="3" fill="#C3CEDA"/><rect x="232" y="53" width="56" height="6" rx="3" fill="#C3CEDA"/><rect x="134" y="67" width="166" height="20" rx="5" fill="#FFCD33"/><rect x="146" y="74" width="54" height="6" rx="3" fill="#0B3D66"/><rect x="232" y="74" width="56" height="6" rx="3" fill="#0B3D66"/><rect x="146" y="95" width="54" height="6" rx="3" fill="#C3CEDA"/><rect x="232" y="95" width="56" height="6" rx="3" fill="#C3CEDA"/><rect x="146" y="116" width="54" height="6" rx="3" fill="#C3CEDA"/><rect x="232" y="116" width="56" height="6" rx="3" fill="#C3CEDA"/><rect x="146" y="137" width="54" height="6" rx="3" fill="#C3CEDA"/><rect x="232" y="137" width="56" height="6" rx="3" fill="#C3CEDA"/>
</svg>
