<svg xmlns="http://www.w3.org/2000/svg" viewBox="0 0 320 180" width="320" height="180" role="img" aria-label="org-chart">
  <!-- Generado por scripts/gen_blocks.py. No editar a mano. -->
  <rect x="6" y="6" width="308" height="168" rx="10" fill="none" stroke="#0B3D66" stroke-width="3"/><rect x="128" y="20" width="64" height="26" rx="5" fill="#E9EEF3" stroke="#0B3D66" stroke-width="2.5"/><path d="M160 46 V62 M60 62 H260 M60 62 V78 M160 62 V78 M260 62 V78" stroke="#C3CEDA" stroke-width="2.5" fill="none"/><rect x="28" y="78" width="64" height="24" rx="5" fill="none" stroke="#0B3D66" stroke-width="2.5"/><rect x="128" y="78" width="64" height="24" rx="5" fill="none" stroke="#0B3D66" stroke-width="2.5"/><rect x="228" y="78" width="64" height="24" rx="5" fill="none" stroke="#0B3D66" stroke-width="2.5"/><path d="M160 102 V118 M116 118 H204 M116 118 V132 M204 118 V132" stroke="#C3CEDA" stroke-width="2.5" fill="none"/><rect x="90" y="132" width="52" height="22" rx="5" fill="none" stroke="#0B3D66" stroke-width="2.5"/><rect x="178" y="132" width="52" height="22" rx="5" fill="none" stroke="#0B3D66" stroke-width="2.5"/>
</svg>
