<svg xmlns="http://www.w3.org/2000/svg" viewBox="0 0 320 180" width="320" height="180" role="img" aria-label="price-calculator">
  <!-- Generado por scripts/gen_blocks.py. No editar a mano. -->
  <rect x="6" y="6" width="308" height="168" rx="10" fill="none" stroke="#0B3D66" stroke-width="3"/><rect x="20" y="24" width="58" height="6" rx="3" fill="#C3CEDA"/><rect x="20" y="42" width="150" height="4" rx="2" fill="#E9EEF3"/><rect x="20" y="42" width="52.5" height="4" rx="2" fill="#0B3D66"/><circle cx="72.5" cy="44" r="7" fill="#FFCD33"/><circle cx="72.5" cy="44" r="7" fill="none" stroke="#0B3D66" stroke-width="2.5"/><rect x="20" y="62" width="58" height="6" rx="3" fill="#C3CEDA"/><rect x="20" y="80" width="150" height="4" rx="2" fill="#E9EEF3"/><rect x="20" y="80" width="93" height="4" rx="2" fill="#0B3D66"/><circle cx="113" cy="82" r="7" fill="#FFCD33"/><circle cx="113" cy="82" r="7" fill="none" stroke="#0B3D66" stroke-width="2.5"/><rect x="20" y="100" width="58" height="6" rx="3" fill="#C3CEDA"/><rect x="20" y="118" width="150" height="4" rx="2" fill="#E9EEF3"/><rect x="20" y="118" width="120" height="4" rx="2" fill="#0B3D66"/><circle cx="140" cy="120" r="7" fill="#FFCD33"/><circle cx="140" cy="120" r="7" fill="none" stroke="#0B3D66" stroke-width="2.5"/><rect x="196" y="30" width="104" height="118" rx="8" fill="#E9EEF3" stroke="#0B3D66" stroke-width="2.5"/><rect x="210" y="44" width="40" height="5" rx="3" fill="#C3CEDA"/><rect x="210" y="58" width="76" height="18" rx="4" fill="#0B3D66"/><rect x="210" y="88" width="76" height="5" rx="3" fill="#C3CEDA"/><rect x="210" y="100" width="45.6" height="5" rx="3" fill="#C3CEDA"/><rect x="210" y="118" width="76" height="18" rx="9" fill="#FFCD33"/>
</svg>
