<svg xmlns="http://www.w3.org/2000/svg" viewBox="0 0 320 180" width="320" height="180" role="img" aria-label="pricing-plans">
  <!-- Generado por scripts/gen_blocks.py. No editar a mano. -->
  <rect x="6" y="6" width="308" height="168" rx="10" fill="none" stroke="#0B3D66" stroke-width="3"/><rect x="24" y="24" width="80" height="132" rx="8" fill="none" stroke="#0B3D66" stroke-width="3"/><rect x="38" y="38" width="52" height="6" rx="3" fill="#C3CEDA"/><rect x="42" y="54" width="44" height="14" rx="4" fill="#0B3D66"/><rect x="38" y="82" width="52" height="5" rx="3" fill="#C3CEDA"/><rect x="38" y="94" width="52" height="5" rx="3" fill="#C3CEDA"/><rect x="38" y="106" width="31.2" height="5" rx="3" fill="#C3CEDA"/><rect x="38" y="126" width="52" height="16" rx="9" fill="#FFCD33"/><rect x="116" y="24" width="80" height="132" rx="8" fill="#E9EEF3" stroke="#FFCD33" stroke-width="3"/><rect x="130" y="38" width="52" height="6" rx="3" fill="#C3CEDA"/><rect x="134" y="54" width="44" height="14" rx="4" fill="#0B3D66"/><rect x="130" y="82" width="52" height="5" rx="3" fill="#C3CEDA"/><rect x="130" y="94" width="52" height="5" rx="3" fill="#C3CEDA"/><rect x="130" y="106" width="31.2" height="5" rx="3" fill="#C3CEDA"/><rect x="130" y="126" width="52" height="16" rx="9" fill="#FFCD33"/><rect x="208" y="24" width="80" height="132" rx="8" fill="none" stroke="#0B3D66" stroke-width="3"/><rect x="222" y="38" width="52" height="6" rx="3" fill="#C3CEDA"/><rect x="226" y="54" width="44" height="14" rx="4" fill="#0B3D66"/><rect x="222" y="82" width="52" height="5" rx="3" fill="#C3CEDA"/><rect x="222" y="94" width="52" height="5" rx="3" fill="#C3CEDA"/><rect x="222" y="106" width="31.2" height="5" rx="3" fill="#C3CEDA"/><rect x="222" y="126" width="52" height="16" rx="9" fill="#FFCD33"/>
</svg>
