<svg xmlns="http://www.w3.org/2000/svg" viewBox="0 0 320 180" width="320" height="180" role="img" aria-label="product-carousel">
  <!-- Generado por scripts/gen_blocks.py. No editar a mano. -->
  <rect x="6" y="6" width="308" height="168" rx="10" fill="none" stroke="#0B3D66" stroke-width="3"/><circle cx="20" cy="94" r="9" fill="none" stroke="#0B3D66" stroke-width="2.5"/><circle cx="300" cy="94" r="9" fill="none" stroke="#0B3D66" stroke-width="2.5"/><rect x="42" y="40" width="68" height="66" rx="6" fill="#E9EEF3" stroke="#0B3D66" stroke-width="3"/><path d="M42 40 L110 106 M110 40 L42 106" stroke="#0B3D66" stroke-width="2.5" opacity="0.55"/><rect x="42" y="114" width="44" height="6" rx="3" fill="#C3CEDA"/><rect x="42" y="126" width="30" height="6" rx="3" fill="#0B3D66"/><rect x="124" y="40" width="68" height="66" rx="6" fill="#E9EEF3" stroke="#0B3D66" stroke-width="3"/><path d="M124 40 L192 106 M192 40 L124 106" stroke="#0B3D66" stroke-width="2.5" opacity="0.55"/><rect x="124" y="114" width="44" height="6" rx="3" fill="#C3CEDA"/><rect x="124" y="126" width="30" height="6" rx="3" fill="#0B3D66"/><rect x="206" y="40" width="68" height="66" rx="6" fill="#E9EEF3" stroke="#0B3D66" stroke-width="3"/><path d="M206 40 L274 106 M274 40 L206 106" stroke="#0B3D66" stroke-width="2.5" opacity="0.55"/><rect x="206" y="114" width="44" height="6" rx="3" fill="#C3CEDA"/><rect x="206" y="126" width="30" height="6" rx="3" fill="#0B3D66"/>
</svg>
