<svg xmlns="http://www.w3.org/2000/svg" viewBox="0 0 320 180" width="320" height="180" role="img" aria-label="product-configurator">
  <!-- Generado por scripts/gen_blocks.py. No editar a mano. -->
  <rect x="6" y="6" width="308" height="168" rx="10" fill="none" stroke="#0B3D66" stroke-width="3"/><rect x="20" y="26" width="140" height="128" rx="6" fill="#E9EEF3" stroke="#0B3D66" stroke-width="3"/><path d="M20 26 L160 154 M160 26 L20 154" stroke="#0B3D66" stroke-width="2.5" opacity="0.55"/><rect x="176" y="30" width="58" height="6" rx="3" fill="#C3CEDA"/><circle cx="186" cy="56" r="10" fill="#C3CEDA"/><circle cx="212" cy="56" r="10" fill="#FFCD33"/><circle cx="212" cy="56" r="14" fill="none" stroke="#0B3D66" stroke-width="2.5"/><circle cx="238" cy="56" r="10" fill="#C3CEDA"/><circle cx="264" cy="56" r="10" fill="#C3CEDA"/><circle cx="290" cy="56" r="10" fill="#C3CEDA"/><rect x="176" y="84" width="44" height="6" rx="3" fill="#C3CEDA"/><rect x="176" y="96" width="26" height="20" rx="10" fill="#E9EEF3"/><rect x="208" y="96" width="26" height="20" rx="10" fill="#E9EEF3"/><rect x="240" y="96" width="26" height="20" rx="10" fill="#0B3D66"/><rect x="272" y="96" width="26" height="20" rx="10" fill="#E9EEF3"/><rect x="176" y="130" width="124" height="22" rx="9" fill="#FFCD33"/>
</svg>
