<svg xmlns="http://www.w3.org/2000/svg" viewBox="0 0 320 180" width="320" height="180" role="img" aria-label="product-zoom">
  <!-- Generado por scripts/gen_blocks.py. No editar a mano. -->
  <rect x="6" y="6" width="308" height="168" rx="10" fill="none" stroke="#0B3D66" stroke-width="3"/><rect x="20" y="26" width="34" height="28" rx="4" fill="#E9EEF3" stroke="#0B3D66" stroke-width="3"/><path d="M20 26 L54 54 M54 26 L20 54" stroke="#0B3D66" stroke-width="2.5" opacity="0.55"/><rect x="20" y="60" width="34" height="28" rx="4" fill="#E9EEF3" stroke="#0B3D66" stroke-width="3"/><path d="M20 60 L54 88 M54 60 L20 88" stroke="#0B3D66" stroke-width="2.5" opacity="0.55"/><rect x="20" y="94" width="34" height="28" rx="4" fill="#E9EEF3" stroke="#0B3D66" stroke-width="3"/><path d="M20 94 L54 122 M54 94 L20 122" stroke="#0B3D66" stroke-width="2.5" opacity="0.55"/><rect x="20" y="128" width="34" height="28" rx="4" fill="#E9EEF3" stroke="#0B3D66" stroke-width="3"/><path d="M20 128 L54 156 M54 128 L20 156" stroke="#0B3D66" stroke-width="2.5" opacity="0.55"/><rect x="18" y="58" width="38" height="32" rx="5" fill="none" stroke="#FFCD33" stroke-width="2.5"/><rect x="66" y="26" width="234" height="128" rx="6" fill="#E9EEF3" stroke="#0B3D66" stroke-width="3"/><path d="M66 26 L300 154 M300 26 L66 154" stroke="#0B3D66" stroke-width="2.5" opacity="0.55"/><path d="M238 110 L262 134" stroke="#0B3D66" stroke-width="6" stroke-linecap="round"/><circle cx="220" cy="92" r="26" fill="#FFFFFF"/><circle cx="220" cy="92" r="26" fill="none" stroke="#0B3D66" stroke-width="3"/><path d="M213 92 H227 M220 85 V99" stroke="#0B3D66" stroke-width="2.5" stroke-linecap="round"/>
</svg>
