<svg xmlns="http://www.w3.org/2000/svg" viewBox="0 0 320 180" width="320" height="180" role="img" aria-label="progress-bars">
  <!-- Generado por scripts/gen_blocks.py. No editar a mano. -->
  <rect x="6" y="6" width="308" height="168" rx="10" fill="none" stroke="#0B3D66" stroke-width="3"/><rect x="20" y="28" width="56" height="6" rx="3" fill="#C3CEDA"/><rect x="20" y="40" width="280" height="10" rx="5" fill="#E9EEF3"/><rect x="20" y="40" width="238" height="10" rx="5" fill="#FFCD33"/><rect x="20" y="58" width="56" height="6" rx="3" fill="#C3CEDA"/><rect x="20" y="70" width="280" height="10" rx="5" fill="#E9EEF3"/><rect x="20" y="70" width="168" height="10" rx="5" fill="#0B3D66"/><rect x="20" y="88" width="56" height="6" rx="3" fill="#C3CEDA"/><rect x="20" y="100" width="280" height="10" rx="5" fill="#E9EEF3"/><rect x="20" y="100" width="201.6" height="10" rx="5" fill="#0B3D66"/><rect x="20" y="118" width="56" height="6" rx="3" fill="#C3CEDA"/><rect x="20" y="130" width="280" height="10" rx="5" fill="#E9EEF3"/><rect x="20" y="130" width="112" height="10" rx="5" fill="#0B3D66"/>
</svg>
