<svg xmlns="http://www.w3.org/2000/svg" viewBox="0 0 320 180" width="320" height="180" role="img" aria-label="property-map-list">
  <!-- Generado por scripts/gen_blocks.py. No editar a mano. -->
  <rect x="6" y="6" width="308" height="168" rx="10" fill="none" stroke="#0B3D66" stroke-width="3"/><rect x="18" y="26" width="130" height="38" rx="6" fill="#E9EEF3" stroke="#0B3D66" stroke-width="2.5"/><rect x="24" y="32" width="34" height="26" rx="4" fill="#E9EEF3" stroke="#0B3D66" stroke-width="3"/><path d="M24 32 L58 58 M58 32 L24 58" stroke="#0B3D66" stroke-width="2.5" opacity="0.55"/><rect x="66" y="35" width="66" height="6" rx="3" fill="#0B3D66"/><rect x="66" y="47" width="44" height="5" rx="3" fill="#C3CEDA"/><rect x="18" y="70" width="130" height="38" rx="6" fill="none" stroke="#0B3D66" stroke-width="2.5"/><rect x="24" y="76" width="34" height="26" rx="4" fill="#E9EEF3" stroke="#0B3D66" stroke-width="3"/><path d="M24 76 L58 102 M58 76 L24 102" stroke="#0B3D66" stroke-width="2.5" opacity="0.55"/><rect x="66" y="79" width="66" height="6" rx="3" fill="#0B3D66"/><rect x="66" y="91" width="44" height="5" rx="3" fill="#C3CEDA"/><rect x="18" y="114" width="130" height="38" rx="6" fill="none" stroke="#0B3D66" stroke-width="2.5"/><rect x="24" y="120" width="34" height="26" rx="4" fill="#E9EEF3" stroke="#0B3D66" stroke-width="3"/><path d="M24 120 L58 146 M58 120 L24 146" stroke="#0B3D66" stroke-width="2.5" opacity="0.55"/><rect x="66" y="123" width="66" height="6" rx="3" fill="#0B3D66"/><rect x="66" y="135" width="44" height="5" rx="3" fill="#C3CEDA"/><rect x="160" y="26" width="140" height="128" rx="8" fill="#E9EEF3" stroke="#0B3D66" stroke-width="2.5"/><path d="M160 112 L200 84 L240 118 L300 74" stroke="#0B3D66" stroke-width="2.5" fill="none" opacity="0.5"/><path d="M242.4 103.3 L249.6 103.3 L246 111.4 Z" fill="#0B3D66"/><circle cx="246" cy="100" r="6" fill="#0B3D66"/><circle cx="246" cy="100" r="2.16" fill="#0B3D66"/><path d="M278.4 65.3 L285.6 65.3 L282 73.4 Z" fill="#0B3D66"/><circle cx="282" cy="62" r="6" fill="#0B3D66"/><circle cx="282" cy="62" r="2.16" fill="#0B3D66"/><path d="M191.8 73.85 L200.2 73.85 L196 83.3 Z" fill="#FFCD33"/><circle cx="196" cy="70" r="7" fill="#FFCD33"/><circle cx="196" cy="70" r="2.52" fill="#0B3D66"/>
</svg>
