<svg xmlns="http://www.w3.org/2000/svg" viewBox="0 0 320 180" width="320" height="180" role="img" aria-label="quiz">
  <!-- Generado por scripts/gen_blocks.py. No editar a mano. -->
  <rect x="6" y="6" width="308" height="168" rx="10" fill="none" stroke="#0B3D66" stroke-width="3"/><rect x="20" y="22" width="280" height="6" rx="3" fill="#E9EEF3"/><rect x="20" y="22" width="168" height="6" rx="3" fill="#FFCD33"/><rect x="20" y="40" width="190" height="8" rx="4" fill="#0B3D66"/><rect x="20" y="56" width="130" height="6" rx="3" fill="#C3CEDA"/><rect x="20" y="74" width="280" height="22" rx="6" fill="none" stroke="#0B3D66" stroke-width="2.5"/><circle cx="36" cy="85" r="6" fill="none" stroke="#0B3D66" stroke-width="2.5"/><rect x="52" y="82" width="120" height="6" rx="3" fill="#C3CEDA"/><rect x="20" y="102" width="280" height="22" rx="6" fill="#E9EEF3" stroke="#0B3D66" stroke-width="2.5"/><circle cx="36" cy="113" r="6" fill="none" stroke="#0B3D66" stroke-width="2.5"/><circle cx="36" cy="113" r="3.12" fill="#FFCD33"/><rect x="52" y="110" width="140" height="6" rx="3" fill="#C3CEDA"/><rect x="20" y="130" width="280" height="22" rx="6" fill="none" stroke="#0B3D66" stroke-width="2.5"/><circle cx="36" cy="141" r="6" fill="none" stroke="#0B3D66" stroke-width="2.5"/><rect x="52" y="138" width="160" height="6" rx="3" fill="#C3CEDA"/>
</svg>
