<svg xmlns="http://www.w3.org/2000/svg" viewBox="0 0 320 180" width="320" height="180" role="img" aria-label="ratings-breakdown">
  <!-- Generado por scripts/gen_blocks.py. No editar a mano. -->
  <rect x="6" y="6" width="308" height="168" rx="10" fill="none" stroke="#0B3D66" stroke-width="3"/><rect x="24" y="40" width="64" height="26" rx="4" fill="#0B3D66"/><polygon points="30.0,78.0 31.6,81.8 35.7,82.1 32.6,84.8 33.5,88.9 30.0,86.7 26.5,88.9 27.4,84.8 24.3,82.1 28.4,81.8" fill="#FFCD33"/><polygon points="45.0,78.0 46.6,81.8 50.7,82.1 47.6,84.8 48.5,88.9 45.0,86.7 41.5,88.9 42.4,84.8 39.3,82.1 43.4,81.8" fill="#FFCD33"/><polygon points="60.0,78.0 61.6,81.8 65.7,82.1 62.6,84.8 63.5,88.9 60.0,86.7 56.5,88.9 57.4,84.8 54.3,82.1 58.4,81.8" fill="#FFCD33"/><polygon points="75.0,78.0 76.6,81.8 80.7,82.1 77.6,84.8 78.5,88.9 75.0,86.7 71.5,88.9 72.4,84.8 69.3,82.1 73.4,81.8" fill="#FFCD33"/><polygon points="90.0,78.0 91.6,81.8 95.7,82.1 92.6,84.8 93.5,88.9 90.0,86.7 86.5,88.9 87.4,84.8 84.3,82.1 88.4,81.8" fill="#FFCD33"/><rect x="24" y="100" width="64" height="5" rx="3" fill="#C3CEDA"/><polygon points="118.0,32.0 119.6,35.8 123.7,36.1 120.6,38.8 121.5,42.9 118.0,40.7 114.5,42.9 115.4,38.8 112.3,36.1 116.4,35.8" fill="#FFCD33"/><rect x="134" y="34" width="142" height="8" rx="4" fill="#E9EEF3"/><rect x="134" y="34" width="102.24" height="8" rx="4" fill="#FFCD33"/><rect x="286" y="35" width="14" height="6" rx="3" fill="#C3CEDA"/><polygon points="118.0,58.0 119.6,61.8 123.7,62.1 120.6,64.8 121.5,68.9 118.0,66.7 114.5,68.9 115.4,64.8 112.3,62.1 116.4,61.8" fill="#FFCD33"/><rect x="134" y="60" width="142" height="8" rx="4" fill="#E9EEF3"/><rect x="134" y="60" width="22.72" height="8" rx="4" fill="#0B3D66"/><rect x="286" y="61" width="14" height="6" rx="3" fill="#C3CEDA"/><polygon points="118.0,84.0 119.6,87.8 123.7,88.1 120.6,90.8 121.5,94.9 118.0,92.7 114.5,94.9 115.4,90.8 112.3,88.1 116.4,87.8" fill="#FFCD33"/><rect x="134" y="86" width="142" height="8" rx="4" fill="#E9EEF3"/><rect x="134" y="86" width="8.52" height="8" rx="4" fill="#0B3D66"/><rect x="286" y="87" width="14" height="6" rx="3" fill="#C3CEDA"/><polygon points="118.0,110.0 119.6,113.8 123.7,114.1 120.6,116.8 121.5,120.9 118.0,118.7 114.5,120.9 115.4,116.8 112.3,114.1 116.4,113.8" fill="#FFCD33"/><rect x="134" y="112" width="142" height="8" rx="4" fill="#E9EEF3"/><rect x="134" y="112" width="4.26" height="8" rx="4" fill="#0B3D66"/><rect x="286" y="113" width="14" height="6" rx="3" fill="#C3CEDA"/><polygon points="118.0,136.0 119.6,139.8 123.7,140.1 120.6,142.8 121.5,146.9 118.0,144.7 114.5,146.9 115.4,142.8 112.3,140.1 116.4,139.8" fill="#FFCD33"/><rect x="134" y="138" width="142" height="8" rx="4" fill="#E9EEF3"/><rect x="134" y="138" width="4.26" height="8" rx="4" fill="#0B3D66"/><rect x="286" y="139" width="14" height="6" rx="3" fill="#C3CEDA"/>
</svg>
