<svg xmlns="http://www.w3.org/2000/svg" viewBox="0 0 320 180" width="320" height="180" role="img" aria-label="related-items">
  <!-- Generado por scripts/gen_blocks.py. No editar a mano. -->
  <rect x="6" y="6" width="308" height="168" rx="10" fill="none" stroke="#0B3D66" stroke-width="3"/><rect x="20" y="26" width="110" height="8" rx="4" fill="#0B3D66"/><circle cx="20" cy="100" r="9" fill="none" stroke="#0B3D66" stroke-width="2.5"/><circle cx="300" cy="100" r="9" fill="none" stroke="#0B3D66" stroke-width="2.5"/><rect x="40" y="50" width="70" height="60" rx="6" fill="#E9EEF3" stroke="#0B3D66" stroke-width="3"/><path d="M40 50 L110 110 M110 50 L40 110" stroke="#0B3D66" stroke-width="2.5" opacity="0.55"/><rect x="40" y="118" width="52" height="6" rx="3" fill="#C3CEDA"/><rect x="124" y="50" width="70" height="60" rx="6" fill="#E9EEF3" stroke="#0B3D66" stroke-width="3"/><path d="M124 50 L194 110 M194 50 L124 110" stroke="#0B3D66" stroke-width="2.5" opacity="0.55"/><rect x="124" y="118" width="52" height="6" rx="3" fill="#C3CEDA"/><rect x="208" y="50" width="70" height="60" rx="6" fill="#E9EEF3" stroke="#0B3D66" stroke-width="3"/><path d="M208 50 L278 110 M278 50 L208 110" stroke="#0B3D66" stroke-width="2.5" opacity="0.55"/><rect x="208" y="118" width="52" height="6" rx="3" fill="#C3CEDA"/>
</svg>
