<svg xmlns="http://www.w3.org/2000/svg" viewBox="0 0 320 180" width="320" height="180" role="img" aria-label="roadmap-gantt">
  <!-- Generado por scripts/gen_blocks.py. No editar a mano. -->
  <rect x="6" y="6" width="308" height="168" rx="10" fill="none" stroke="#0B3D66" stroke-width="3"/><rect x="100" y="24" width="1.5" height="118" rx="0" fill="#E9EEF3"/><rect x="144" y="24" width="1.5" height="118" rx="0" fill="#E9EEF3"/><rect x="188" y="24" width="1.5" height="118" rx="0" fill="#E9EEF3"/><rect x="232" y="24" width="1.5" height="118" rx="0" fill="#E9EEF3"/><rect x="276" y="24" width="1.5" height="118" rx="0" fill="#E9EEF3"/><rect x="20" y="45" width="62" height="6" rx="3" fill="#C3CEDA"/><rect x="100" y="40" width="120" height="16" rx="4" fill="#0B3D66"/><rect x="20" y="73" width="62" height="6" rx="3" fill="#C3CEDA"/><rect x="160" y="68" width="92" height="16" rx="4" fill="#FFCD33"/><rect x="20" y="101" width="62" height="6" rx="3" fill="#C3CEDA"/><rect x="128" y="96" width="150" height="16" rx="4" fill="#0B3D66"/><rect x="20" y="129" width="62" height="6" rx="3" fill="#C3CEDA"/><rect x="200" y="124" width="80" height="16" rx="4" fill="#0B3D66"/><path d="M140 150 l7 -7 l7 7 l-7 7 Z" fill="#C3CEDA"/><path d="M200 150 l7 -7 l7 7 l-7 7 Z" fill="#FFCD33"/><path d="M260 150 l7 -7 l7 7 l-7 7 Z" fill="#C3CEDA"/>
</svg>
