<svg xmlns="http://www.w3.org/2000/svg" viewBox="0 0 320 180" width="320" height="180" role="img" aria-label="seat-picker">
  <!-- Generado por scripts/gen_blocks.py. No editar a mano. -->
  <rect x="6" y="6" width="308" height="168" rx="10" fill="none" stroke="#0B3D66" stroke-width="3"/><path d="M64 42 Q160 20 256 42" stroke="#0B3D66" stroke-width="5" fill="none" stroke-linecap="round"/><rect x="62" y="68.4" width="17" height="14" rx="4" fill="#E9EEF3"/><rect x="86" y="66.8" width="17" height="14" rx="4" fill="#E9EEF3"/><rect x="110" y="65.2" width="17" height="14" rx="4" fill="#C3CEDA"/><rect x="134" y="63.6" width="17" height="14" rx="4" fill="#E9EEF3"/><rect x="158" y="62" width="17" height="14" rx="4" fill="#E9EEF3"/><rect x="182" y="63.6" width="17" height="14" rx="4" fill="#E9EEF3"/><rect x="206" y="65.2" width="17" height="14" rx="4" fill="#E9EEF3"/><rect x="230" y="66.8" width="17" height="14" rx="4" fill="#E9EEF3"/><rect x="254" y="68.4" width="17" height="14" rx="4" fill="#E9EEF3"/><rect x="62" y="89.4" width="17" height="14" rx="4" fill="#E9EEF3"/><rect x="86" y="87.8" width="17" height="14" rx="4" fill="#E9EEF3"/><rect x="110" y="86.2" width="17" height="14" rx="4" fill="#E9EEF3"/><rect x="134" y="84.6" width="17" height="14" rx="4" fill="#E9EEF3"/><rect x="158" y="83" width="17" height="14" rx="4" fill="#E9EEF3"/><rect x="182" y="84.6" width="17" height="14" rx="4" fill="#C3CEDA"/><rect x="206" y="86.2" width="17" height="14" rx="4" fill="#E9EEF3"/><rect x="230" y="87.8" width="17" height="14" rx="4" fill="#E9EEF3"/><rect x="254" y="89.4" width="17" height="14" rx="4" fill="#C3CEDA"/><rect x="62" y="110.4" width="17" height="14" rx="4" fill="#E9EEF3"/><rect x="86" y="108.8" width="17" height="14" rx="4" fill="#C3CEDA"/><rect x="110" y="107.2" width="17" height="14" rx="4" fill="#E9EEF3"/><rect x="134" y="105.6" width="17" height="14" rx="4" fill="#E9EEF3"/><rect x="158" y="104" width="17" height="14" rx="4" fill="#FFCD33"/><rect x="182" y="105.6" width="17" height="14" rx="4" fill="#FFCD33"/><rect x="206" y="107.2" width="17" height="14" rx="4" fill="#E9EEF3"/><rect x="230" y="108.8" width="17" height="14" rx="4" fill="#E9EEF3"/><rect x="254" y="110.4" width="17" height="14" rx="4" fill="#E9EEF3"/><rect x="62" y="131.4" width="17" height="14" rx="4" fill="#E9EEF3"/><rect x="86" y="129.8" width="17" height="14" rx="4" fill="#E9EEF3"/><rect x="110" y="128.2" width="17" height="14" rx="4" fill="#E9EEF3"/><rect x="134" y="126.6" width="17" height="14" rx="4" fill="#E9EEF3"/><rect x="158" y="125" width="17" height="14" rx="4" fill="#E9EEF3"/><rect x="182" y="126.6" width="17" height="14" rx="4" fill="#E9EEF3"/><rect x="206" y="128.2" width="17" height="14" rx="4" fill="#C3CEDA"/><rect x="230" y="129.8" width="17" height="14" rx="4" fill="#E9EEF3"/><rect x="254" y="131.4" width="17" height="14" rx="4" fill="#E9EEF3"/><rect x="66" y="158" width="14" height="11" rx="3" fill="#E9EEF3"/><rect x="86" y="161" width="34" height="5" rx="3" fill="#C3CEDA"/><rect x="142" y="158" width="14" height="11" rx="3" fill="#FFCD33"/><rect x="162" y="161" width="34" height="5" rx="3" fill="#C3CEDA"/><rect x="218" y="158" width="14" height="11" rx="3" fill="#C3CEDA"/><rect x="238" y="161" width="34" height="5" rx="3" fill="#C3CEDA"/>
</svg>
