<svg xmlns="http://www.w3.org/2000/svg" viewBox="0 0 320 180" width="320" height="180" role="img" aria-label="shop-catalog">
  <!-- Generado por scripts/gen_blocks.py. No editar a mano. -->
  <rect x="6" y="6" width="308" height="168" rx="10" fill="none" stroke="#0B3D66" stroke-width="3"/><rect x="20" y="26" width="60" height="128" rx="8" fill="#E9EEF3" stroke="#0B3D66" stroke-width="2.5"/><rect x="28" y="40" width="44" height="6" rx="3" fill="#C3CEDA"/><rect x="28" y="58" width="44" height="6" rx="3" fill="#C3CEDA"/><rect x="28" y="76" width="44" height="6" rx="3" fill="#C3CEDA"/><rect x="28" y="94" width="26.4" height="6" rx="3" fill="#C3CEDA"/><rect x="94" y="26" width="63.3333" height="60" rx="6" fill="#E9EEF3" stroke="#0B3D66" stroke-width="3"/><path d="M94 26 L157.333 86 M157.333 26 L94 86" stroke="#0B3D66" stroke-width="2.5" opacity="0.55"/><rect x="165.333" y="26" width="63.3333" height="60" rx="6" fill="#E9EEF3" stroke="#0B3D66" stroke-width="3"/><path d="M165.333 26 L228.667 86 M228.667 26 L165.333 86" stroke="#0B3D66" stroke-width="2.5" opacity="0.55"/><rect x="236.667" y="26" width="63.3333" height="60" rx="6" fill="#E9EEF3" stroke="#0B3D66" stroke-width="3"/><path d="M236.667 26 L300 86 M300 26 L236.667 86" stroke="#0B3D66" stroke-width="2.5" opacity="0.55"/><rect x="94" y="94" width="63.3333" height="60" rx="6" fill="#E9EEF3" stroke="#0B3D66" stroke-width="3"/><path d="M94 94 L157.333 154 M157.333 94 L94 154" stroke="#0B3D66" stroke-width="2.5" opacity="0.55"/><rect x="165.333" y="94" width="63.3333" height="60" rx="6" fill="#E9EEF3" stroke="#0B3D66" stroke-width="3"/><path d="M165.333 94 L228.667 154 M228.667 94 L165.333 154" stroke="#0B3D66" stroke-width="2.5" opacity="0.55"/><rect x="236.667" y="94" width="63.3333" height="60" rx="6" fill="#E9EEF3" stroke="#0B3D66" stroke-width="3"/><path d="M236.667 94 L300 154 M300 94 L236.667 154" stroke="#0B3D66" stroke-width="2.5" opacity="0.55"/>
</svg>
