<svg xmlns="http://www.w3.org/2000/svg" viewBox="0 0 320 180" width="320" height="180" role="img" aria-label="size-guide">
  <!-- Generado por scripts/gen_blocks.py. No editar a mano. -->
  <rect x="6" y="6" width="308" height="168" rx="10" fill="none" stroke="#0B3D66" stroke-width="3"/><circle cx="56" cy="40" r="11" fill="#0B3D66"/><path d="M56 54 C40 60 36 76 38 96 L44 140 M56 54 C72 60 76 76 74 96 L68 140" stroke="#0B3D66" stroke-width="3" fill="none" stroke-linecap="round"/><path d="M28 76 L86 76" stroke="#FFCD33" stroke-width="2" stroke-dasharray="3 4" stroke-linecap="round"/><path d="M28 106 L86 106" stroke="#FFCD33" stroke-width="2" stroke-dasharray="3 4" stroke-linecap="round"/><rect x="112" y="26" width="188" height="18" rx="4" fill="#0B3D66"/><rect x="124" y="32" width="38" height="6" rx="3" fill="#FFFFFF"/><rect x="186" y="32" width="38" height="6" rx="3" fill="#FFFFFF"/><rect x="248" y="32" width="38" height="6" rx="3" fill="#FFFFFF"/><rect x="112" y="50" width="188" height="20" rx="3" fill="#E9EEF3"/><rect x="124" y="57" width="38" height="6" rx="3" fill="#C3CEDA"/><rect x="186" y="57" width="38" height="6" rx="3" fill="#C3CEDA"/><rect x="248" y="57" width="38" height="6" rx="3" fill="#C3CEDA"/><rect x="124" y="83" width="38" height="6" rx="3" fill="#C3CEDA"/><rect x="186" y="83" width="38" height="6" rx="3" fill="#C3CEDA"/><rect x="248" y="83" width="38" height="6" rx="3" fill="#C3CEDA"/><rect x="112" y="102" width="188" height="20" rx="3" fill="#E9EEF3"/><rect x="124" y="109" width="38" height="6" rx="3" fill="#C3CEDA"/><rect x="186" y="109" width="38" height="6" rx="3" fill="#C3CEDA"/><rect x="248" y="109" width="38" height="6" rx="3" fill="#C3CEDA"/><rect x="124" y="135" width="38" height="6" rx="3" fill="#C3CEDA"/><rect x="186" y="135" width="38" height="6" rx="3" fill="#C3CEDA"/><rect x="248" y="135" width="38" height="6" rx="3" fill="#C3CEDA"/>
</svg>
