<svg xmlns="http://www.w3.org/2000/svg" viewBox="0 0 320 180" width="320" height="180" role="img" aria-label="spec-sheet">
  <!-- Generado por scripts/gen_blocks.py. No editar a mano. -->
  <rect x="6" y="6" width="308" height="168" rx="10" fill="none" stroke="#0B3D66" stroke-width="3"/><rect x="20" y="26" width="280" height="10" rx="4" fill="#0B3D66"/><rect x="20" y="50" width="110" height="6" rx="3" fill="#C3CEDA"/><rect x="150" y="50" width="150" height="6" rx="3" fill="#E9EEF3"/><rect x="20" y="72" width="110" height="6" rx="3" fill="#C3CEDA"/><rect x="150" y="72" width="150" height="6" rx="3" fill="#E9EEF3"/><rect x="20" y="94" width="110" height="6" rx="3" fill="#C3CEDA"/><rect x="150" y="94" width="150" height="6" rx="3" fill="#E9EEF3"/><rect x="20" y="116" width="110" height="6" rx="3" fill="#C3CEDA"/><rect x="150" y="116" width="150" height="6" rx="3" fill="#E9EEF3"/><rect x="20" y="138" width="110" height="6" rx="3" fill="#C3CEDA"/><rect x="150" y="138" width="150" height="6" rx="3" fill="#E9EEF3"/>
</svg>
