<svg xmlns="http://www.w3.org/2000/svg" viewBox="0 0 320 180" width="320" height="180" role="img" aria-label="stats-chart">
  <!-- Generado por scripts/gen_blocks.py. No editar a mano. -->
  <rect x="6" y="6" width="308" height="168" rx="10" fill="none" stroke="#0B3D66" stroke-width="3"/><path d="M30 140 H296 M30 140 V32" stroke="#C3CEDA" stroke-width="2.5" fill="none" stroke-linecap="round"/><rect x="44" y="100" width="26" height="38" rx="2" fill="#0B3D66"/><rect x="46" y="150" width="22" height="5" rx="3" fill="#C3CEDA"/><rect x="86" y="76" width="26" height="62" rx="2" fill="#0B3D66"/><rect x="88" y="150" width="22" height="5" rx="3" fill="#C3CEDA"/><rect x="128" y="88" width="26" height="50" rx="2" fill="#0B3D66"/><rect x="130" y="150" width="22" height="5" rx="3" fill="#C3CEDA"/><rect x="170" y="54" width="26" height="84" rx="2" fill="#0B3D66"/><rect x="172" y="150" width="22" height="5" rx="3" fill="#C3CEDA"/><rect x="212" y="68" width="26" height="70" rx="2" fill="#0B3D66"/><rect x="214" y="150" width="22" height="5" rx="3" fill="#C3CEDA"/><rect x="254" y="42" width="26" height="96" rx="2" fill="#FFCD33"/><rect x="256" y="150" width="22" height="5" rx="3" fill="#C3CEDA"/>
</svg>
