<svg xmlns="http://www.w3.org/2000/svg" viewBox="0 0 320 180" width="320" height="180" role="img" aria-label="steps-process">
  <!-- Generado por scripts/gen_blocks.py. No editar a mano. -->
  <rect x="6" y="6" width="308" height="168" rx="10" fill="none" stroke="#0B3D66" stroke-width="3"/><path d="M46 78 H274" stroke="#C3CEDA" stroke-width="3"/><circle cx="46" cy="78" r="14" fill="#FFCD33"/><rect x="22" y="106" width="48" height="6" rx="3" fill="#C3CEDA"/><rect x="30" y="120" width="32" height="5" rx="3" fill="#C3CEDA"/><circle cx="122" cy="78" r="14" fill="#0B3D66"/><rect x="98" y="106" width="48" height="6" rx="3" fill="#C3CEDA"/><rect x="106" y="120" width="32" height="5" rx="3" fill="#C3CEDA"/><circle cx="198" cy="78" r="14" fill="#0B3D66"/><rect x="174" y="106" width="48" height="6" rx="3" fill="#C3CEDA"/><rect x="182" y="120" width="32" height="5" rx="3" fill="#C3CEDA"/><circle cx="274" cy="78" r="14" fill="#0B3D66"/><rect x="250" y="106" width="48" height="6" rx="3" fill="#C3CEDA"/><rect x="258" y="120" width="32" height="5" rx="3" fill="#C3CEDA"/>
</svg>
