<svg xmlns="http://www.w3.org/2000/svg" viewBox="0 0 320 180" width="320" height="180" role="img" aria-label="table-of-contents">
  <!-- Generado por scripts/gen_blocks.py. No editar a mano. -->
  <rect x="6" y="6" width="308" height="168" rx="10" fill="none" stroke="#0B3D66" stroke-width="3"/><rect x="20" y="26" width="4" height="106" rx="2" fill="#E9EEF3"/><rect x="20" y="50" width="4" height="24" rx="2" fill="#FFCD33"/><rect x="34" y="28" width="64" height="6" rx="3" fill="#C3CEDA"/><rect x="34" y="50" width="48" height="6" rx="3" fill="#0B3D66"/><rect x="34" y="72" width="64" height="6" rx="3" fill="#C3CEDA"/><rect x="34" y="94" width="48" height="6" rx="3" fill="#C3CEDA"/><rect x="34" y="116" width="64" height="6" rx="3" fill="#C3CEDA"/><rect x="122" y="26" width="118" height="10" rx="4" fill="#0B3D66"/><rect x="122" y="50" width="178" height="5" rx="3" fill="#C3CEDA"/><rect x="122" y="64" width="178" height="5" rx="3" fill="#C3CEDA"/><rect x="122" y="78" width="178" height="5" rx="3" fill="#C3CEDA"/><rect x="122" y="92" width="178" height="5" rx="3" fill="#C3CEDA"/><rect x="122" y="106" width="178" height="5" rx="3" fill="#C3CEDA"/><rect x="122" y="120" width="106.8" height="5" rx="3" fill="#C3CEDA"/>
</svg>
