<svg xmlns="http://www.w3.org/2000/svg" viewBox="0 0 320 180" width="320" height="180" role="img" aria-label="team-showcase">
  <!-- Generado por scripts/gen_blocks.py. No editar a mano. -->
  <rect x="6" y="6" width="308" height="168" rx="10" fill="none" stroke="#0B3D66" stroke-width="3"/><rect x="46" y="32" width="56" height="62" rx="6" fill="#E9EEF3" stroke="#0B3D66" stroke-width="3"/><path d="M46 32 L102 94 M102 32 L46 94" stroke="#0B3D66" stroke-width="2.5" opacity="0.55"/><rect x="46" y="104" width="56" height="7" rx="3" fill="#0B3D66"/><rect x="54" y="118" width="40" height="5" rx="3" fill="#C3CEDA"/><rect x="126" y="32" width="56" height="62" rx="6" fill="#E9EEF3" stroke="#0B3D66" stroke-width="3"/><path d="M126 32 L182 94 M182 32 L126 94" stroke="#0B3D66" stroke-width="2.5" opacity="0.55"/><rect x="126" y="104" width="56" height="7" rx="3" fill="#0B3D66"/><rect x="134" y="118" width="40" height="5" rx="3" fill="#C3CEDA"/><rect x="206" y="32" width="56" height="62" rx="6" fill="#E9EEF3" stroke="#0B3D66" stroke-width="3"/><path d="M206 32 L262 94 M262 32 L206 94" stroke="#0B3D66" stroke-width="2.5" opacity="0.55"/><rect x="206" y="104" width="56" height="7" rx="3" fill="#0B3D66"/><rect x="214" y="118" width="40" height="5" rx="3" fill="#C3CEDA"/>
</svg>
