<svg xmlns="http://www.w3.org/2000/svg" viewBox="0 0 320 180" width="320" height="180" role="img" aria-label="time-slots">
  <!-- Generado por scripts/gen_blocks.py. No editar a mano. -->
  <rect x="6" y="6" width="308" height="168" rx="10" fill="none" stroke="#0B3D66" stroke-width="3"/><rect x="22" y="22" width="44" height="7" rx="3" fill="#0B3D66"/><rect x="22" y="42" width="44" height="20" rx="10" fill="#E9EEF3"/><rect x="22" y="70" width="44" height="20" rx="10" fill="#E9EEF3"/><rect x="22" y="98" width="44" height="20" rx="10" fill="#C3CEDA"/><rect x="22" y="126" width="44" height="20" rx="10" fill="#E9EEF3"/><rect x="80" y="22" width="44" height="7" rx="3" fill="#0B3D66"/><rect x="80" y="42" width="44" height="20" rx="10" fill="#C3CEDA"/><rect x="80" y="70" width="44" height="20" rx="10" fill="#E9EEF3"/><rect x="80" y="98" width="44" height="20" rx="10" fill="#E9EEF3"/><rect x="80" y="126" width="44" height="20" rx="10" fill="#E9EEF3"/><rect x="138" y="22" width="44" height="7" rx="3" fill="#0B3D66"/><rect x="138" y="42" width="44" height="20" rx="10" fill="#E9EEF3"/><rect x="138" y="70" width="44" height="20" rx="10" fill="#FFCD33"/><rect x="138" y="98" width="44" height="20" rx="10" fill="#E9EEF3"/><rect x="138" y="126" width="44" height="20" rx="10" fill="#E9EEF3"/><rect x="196" y="22" width="44" height="7" rx="3" fill="#0B3D66"/><rect x="196" y="42" width="44" height="20" rx="10" fill="#E9EEF3"/><rect x="196" y="70" width="44" height="20" rx="10" fill="#E9EEF3"/><rect x="196" y="98" width="44" height="20" rx="10" fill="#E9EEF3"/><rect x="196" y="126" width="44" height="20" rx="10" fill="#C3CEDA"/><rect x="254" y="22" width="44" height="7" rx="3" fill="#0B3D66"/><rect x="254" y="42" width="44" height="20" rx="10" fill="#E9EEF3"/><rect x="254" y="70" width="44" height="20" rx="10" fill="#C3CEDA"/><rect x="254" y="98" width="44" height="20" rx="10" fill="#E9EEF3"/><rect x="254" y="126" width="44" height="20" rx="10" fill="#E9EEF3"/>
</svg>
