<svg xmlns="http://www.w3.org/2000/svg" viewBox="0 0 320 180" width="320" height="180" role="img" aria-label="timeline-vertical">
  <!-- Generado por scripts/gen_blocks.py. No editar a mano. -->
  <rect x="6" y="6" width="308" height="168" rx="10" fill="none" stroke="#0B3D66" stroke-width="3"/><path d="M160 20 V158" stroke="#C3CEDA" stroke-width="3"/><rect x="30" y="18" width="112" height="32" rx="6" fill="none" stroke="#0B3D66" stroke-width="2.5"/><rect x="42" y="26" width="58" height="6" rx="3" fill="#0B3D66"/><rect x="42" y="36" width="84" height="5" rx="3" fill="#C3CEDA"/><circle cx="160" cy="34" r="8" fill="#FFCD33"/><rect x="178" y="54" width="112" height="32" rx="6" fill="none" stroke="#0B3D66" stroke-width="2.5"/><rect x="190" y="62" width="58" height="6" rx="3" fill="#0B3D66"/><rect x="190" y="72" width="84" height="5" rx="3" fill="#C3CEDA"/><circle cx="160" cy="70" r="8" fill="#0B3D66"/><rect x="30" y="90" width="112" height="32" rx="6" fill="none" stroke="#0B3D66" stroke-width="2.5"/><rect x="42" y="98" width="58" height="6" rx="3" fill="#0B3D66"/><rect x="42" y="108" width="84" height="5" rx="3" fill="#C3CEDA"/><circle cx="160" cy="106" r="8" fill="#0B3D66"/><rect x="178" y="126" width="112" height="32" rx="6" fill="none" stroke="#0B3D66" stroke-width="2.5"/><rect x="190" y="134" width="58" height="6" rx="3" fill="#0B3D66"/><rect x="190" y="144" width="84" height="5" rx="3" fill="#C3CEDA"/><circle cx="160" cy="142" r="8" fill="#0B3D66"/>
</svg>
