<svg xmlns="http://www.w3.org/2000/svg" viewBox="0 0 320 180" width="320" height="180" role="img" aria-label="video-gallery">
  <!-- Generado por scripts/gen_blocks.py. No editar a mano. -->
  <rect x="6" y="6" width="308" height="168" rx="10" fill="none" stroke="#0B3D66" stroke-width="3"/><rect x="26" y="44" width="80" height="62" rx="6" fill="#E9EEF3" stroke="#0B3D66" stroke-width="3"/><path d="M26 44 L106 106 M106 44 L26 106" stroke="#0B3D66" stroke-width="2.5" opacity="0.55"/><circle cx="66" cy="75" r="12" fill="#0B3D66"/><path d="M62.64 69.96 L71.4 75 L62.64 80.04 Z" fill="#FFFFFF"/><rect x="118" y="44" width="80" height="62" rx="6" fill="#E9EEF3" stroke="#0B3D66" stroke-width="3"/><path d="M118 44 L198 106 M198 44 L118 106" stroke="#0B3D66" stroke-width="2.5" opacity="0.55"/><circle cx="158" cy="75" r="12" fill="#0B3D66"/><path d="M154.64 69.96 L163.4 75 L154.64 80.04 Z" fill="#FFFFFF"/><rect x="210" y="44" width="80" height="62" rx="6" fill="#E9EEF3" stroke="#0B3D66" stroke-width="3"/><path d="M210 44 L290 106 M290 44 L210 106" stroke="#0B3D66" stroke-width="2.5" opacity="0.55"/><circle cx="250" cy="75" r="12" fill="#0B3D66"/><path d="M246.64 69.96 L255.4 75 L246.64 80.04 Z" fill="#FFFFFF"/>
</svg>
