<svg xmlns="http://www.w3.org/2000/svg" viewBox="0 0 320 180" width="320" height="180" role="img" aria-label="why-us">
  <!-- Generado por scripts/gen_blocks.py. No editar a mano. -->
  <rect x="6" y="6" width="308" height="168" rx="10" fill="none" stroke="#0B3D66" stroke-width="3"/><circle cx="60" cy="62" r="15" fill="none" stroke="#0B3D66" stroke-width="3"/><rect x="34" y="92" width="52" height="7" rx="3" fill="#0B3D66"/><rect x="34" y="110" width="52" height="5" rx="3" fill="#C3CEDA"/><rect x="34" y="121" width="31.2" height="5" rx="3" fill="#C3CEDA"/><circle cx="148" cy="62" r="15" fill="none" stroke="#0B3D66" stroke-width="3"/><rect x="122" y="92" width="52" height="7" rx="3" fill="#0B3D66"/><rect x="122" y="110" width="52" height="5" rx="3" fill="#C3CEDA"/><rect x="122" y="121" width="31.2" height="5" rx="3" fill="#C3CEDA"/><circle cx="236" cy="62" r="15" fill="none" stroke="#0B3D66" stroke-width="3"/><rect x="210" y="92" width="52" height="7" rx="3" fill="#0B3D66"/><rect x="210" y="110" width="52" height="5" rx="3" fill="#C3CEDA"/><rect x="210" y="121" width="31.2" height="5" rx="3" fill="#C3CEDA"/>
</svg>
